<?xml version="1.0" encoding="UTF-8" standalone="no"?>
<!-- Created with Inkscape (http://www.inkscape.org/) -->
<svg
   xmlns:svg="http://www.w3.org/2000/svg"
   xmlns="http://www.w3.org/2000/svg"
   version="1.0"
   width="320"
   height="250"
   id="svg2">
  <defs
     id="defs4" />
  <g
     id="layer1">
    <path
       d="M 126.5,245.34222 C 90.986243,243.23071 55.336121,238.53708 28.107108,232.38798 C 21.532556,230.90326 20.625861,230.39176 18.277008,226.8424 C 13.910923,220.2448 9.8395533,203.22138 7.8690543,183.32412 C 5.2269855,156.64565 6.257177,75.237851 9.5056127,54 C 9.7159258,52.625 10.385601,47.780586 10.99378,43.234635 C 12.990064,28.313029 17.686347,18.696602 23.773232,17.06657 C 39.640974,12.81728 74.109744,7.3453027 104,4.3304301 C 128.83457,1.8254977 193.1557,1.8249351 218,4.329433 C 241.77499,6.7261368 260.43295,9.3819449 279.5,13.083459 C 295.13279,16.118275 295.59441,16.280892 299.61345,20.168972 C 303.00238,23.447478 304.09128,25.500346 305.7957,31.824192 C 310.85727,50.60387 312.96695,73.110342 313.68943,116.03573 C 314.58209,169.07257 311.54169,207.61939 305.27752,222.68382 L 302.44384,229.49841 L 290.47192,232.21197 C 263.87334,238.2408 229.19794,242.97301 197,244.96824 C 182.21013,245.88473 139.44049,246.11161 126.5,245.34222 z M 107,167 L 107,117 L 128,117 L 149,117 L 149,100.5 L 149,84 L 86,84 L 23,84 L 23,100.5 L 23,117 L 44,117 L 65,117 L 65,166.33333 C 65,193.46667 65.3,215.96667 65.666667,216.33333 C 66.033333,216.7 75.483333,217 86.666667,217 L 107,217 L 107,167 z M 253.55568,204.25 C 261.32568,183.42344 264.01726,176.08879 268.14265,164.5 C 270.29633,158.45 272.66637,152.15 273.4094,150.5 C 274.15244,148.85 275.54883,145.025 276.5125,142 C 277.47618,138.975 278.60831,136.05 279.02835,135.5 C 279.44839,134.95 280.25077,132.925 280.81141,131 C 281.98531,126.96931 285.68979,116.74236 292.33706,99.181118 C 294.90168,92.405733 297.14008,85.228379 297.14008,84.429876 C 297.14008,83.199742 293.91412,83.999925 276.79081,84.229295 L 256.58162,84.5 L 255.3655,88 C 253.72738,92.714526 247.97701,111.31544 244.54544,123 C 243.01094,128.225 240.94477,134.975 239.95395,138 C 238.96313,141.025 236.73407,148.225 235.00047,154 C 229.42956,172.55794 227.61926,178 227.01687,178 C 226.50142,178 222.77102,166.66231 214.51387,140 C 213.23639,135.875 211.00217,128.675 209.54895,124 C 208.09574,119.325 205.73213,111.675 204.2965,107 C 202.86086,102.325 200.65559,95.35 199.39589,91.5 L 197.10552,84.5 L 176.05276,84.230112 C 164.32583,84.079778 154.71985,83.931499 154.71985,84.423803 C 154.71985,84.909898 156.60443,89.951577 158.56539,95.113921 C 160.52636,100.27626 162.97191,106.75 163.99996,109.5 C 169.88222,125.23497 171.27846,129.01543 173.04855,134 C 174.12277,137.025 175.44436,140.4 175.98543,141.5 C 176.52649,142.6 178.75088,148.45 180.9285,154.5 C 183.10613,160.55 186.2883,169.1 188,173.5 C 189.7117,177.9 192.90195,186.45 195.08946,192.5 C 197.27696,198.55 199.67359,204.85 200.41528,206.5 C 201.15698,208.15 202.30186,211.1875 202.95946,213.25 L 204.1551,217 L 226.477,217 L 248.7989,217 L 253.55568,204.25 z M 36.895178,62.955529 L 38.106931,58.911058 L 44.717893,59.205529 C 52.415235,58.517939 51.164478,58.657171 52.497578,63 C 53.644798,66.737288 52.892624,66.821759 55.960245,67.083828 L 60.77557,67.107351 L 56.85273,56.303675 C 54.695169,50.361654 52.496526,44.6 51.966857,43.5 C 51.437189,42.4 50.39518,39.7 49.651281,37.5 C 48.444613,33.931406 47.948258,33.5 45.049081,33.5 C 41.505365,33.5 41.433061,33.62494 35.500337,50 C 34.205107,53.575 32.214497,58.8625 31.076762,61.75 L 29.008152,67 L 32.345788,67 C 35.379409,67 35.7938,66.631601 36.895178,62.955529 z M 41.558852,50.814575 C 43.178484,45.711566 44.765538,42.811615 45.3877,43.818295 C 45.75181,44.407437 46.69357,46.714333 47.4805,48.944731 L 48.911282,53 L 44.888253,53 C 41.20652,53 40.924069,52.814599 41.558852,50.814575 z M 79.350448,64.156099 C 82.713993,60.645314 82.782069,55.549418 81.770643,51.53178 C 81.384135,49.996473 78.151838,47.715728 74.91319,46.137651 C 68.983128,43.248147 67.305423,39.977278 70.795371,38.109514 C 72.33559,37.285214 73.346718,37.398665 74.849442,39.541853 C 76.599912,42.038378 79.690621,41.253551 81.48185,41.029368 C 83.087777,40.828377 79.346528,34.255824 77.055391,33.029644 C 71.579748,30.099169 64.55834,33.506871 63.405023,39.65458 C 62.371262,45.165001 64.819376,49.2774 70.402894,51.409765 C 73.791829,52.704011 75.244672,53.827795 75.649142,55.738205 C 76.780606,61.082384 71.297934,63.310947 69.02868,59.054253 C 67.113121,55.461025 67.556132,56 65.05202,56 C 61.611268,56 61.552169,55.25641 63.406302,61.429993 C 64.707222,65.761579 67.344106,66.930531 72.562909,66.969591 C 75.745473,66.993411 77.216186,66.383788 79.350448,64.156099 z M 117.47918,64.611728 C 120.54692,61.543988 121.62836,55.931207 119.93798,51.850278 C 118.98431,49.547914 117.25657,48.118916 113.32357,46.379553 C 109.03367,44.482358 108,43.561125 108,41.635055 C 108,38.339051 110.48744,36.329723 112.5,38 C 113.325,38.684689 114,39.894679 114,40.688867 C 114,41.674157 114.87355,42.032331 116.75,41.816422 C 119.01649,41.555634 119.45529,42.46121 119.2457,39 C 118.92293,33.669784 111.09681,30.272268 105.94461,33.029644 C 103.53678,34.318274 100.66654,36.165228 101,42.373615 C 101.21791,46.430726 105.25301,50.5957 108.74146,51.471246 C 112.6686,52.456897 114,53.856707 114,57 C 114,62.528072 108.26296,62.000051 107.32053,58.287949 C 106.89321,56.604791 106.17377,56.560306 103.43045,56.560306 C 101.5437,56.560306 100,56.479584 100,57.065741 C 100,58.659707 101.98727,62.211624 104.29928,64.75 C 107.2306,67.968325 114.19566,67.895253 117.47918,64.611728 z M 145,64.5 C 145,62.111111 145.71387,62 139,62 L 133,62 L 133,57 L 133,52 L 139,52 C 145.99402,52.140077 145,51.888889 145,49.5 C 145,47.111111 146.1341,47 139,47 L 133,47 L 133,42.5 L 133,38 L 139,38 C 145.99402,38.140077 145,37.888889 145,35.5 C 145,33.008772 146.36744,33 135.5,33 L 126,33 L 126,50 L 126,67 L 135.5,67 C 146.50751,67 145,66.991228 145,64.5 z M 169,64.5 C 169,62.111111 169.85394,62 163,62 L 157,62 L 157,57 L 157,52 L 163,52 C 169.71387,52 169,51.888889 169,49.5 C 169,47.111111 169.99402,47 163,47 L 157,47 L 157,42.5 L 157,38 L 163,38 C 170.27417,38 169,37.888889 169,35.5 C 169,33.008772 170.36743,32.719847 159.5,33 L 150,33 L 150,50 L 150,67 L 159.5,67 C 170.08728,67 169,66.991228 169,64.5 z M 182.00414,55.75 L 182.00827,44.5 L 185.46287,50 C 187.3629,53.025 190.39854,58.082161 192.20874,61.238135 C 195.1479,66.362405 195.84768,66.977539 198.75,66.988135 L 202,67 L 202,50 L 202,33 L 199.03383,33 L 196.06766,33 L 195.78383,43.740968 L 195.5,54.481936 L 188.53469,43.740968 C 182.01038,33.680041 181.36142,33 178.28469,33 L 175,33 L 175,50 L 175,67 L 178.5,67 L 182,67 L 182.00414,55.75 z M 251.27536,63.73914 C 258.90486,57.919835 259.93068,45.249679 253.36108,37.977915 C 249.12115,33.284822 244.37109,31.559033 237.82699,32.334084 C 228.48142,33.440929 223,39.837276 223,49.635899 C 223,56.39058 225.84105,61.671114 231.32846,65.115656 C 236.13363,68.131939 246.44943,67.420056 251.27536,63.73914 z M 235.29855,60.092035 C 229.01225,56.157833 227.30051,48.820404 231.28733,42.897883 C 235.84637,36.125315 243.28779,35.881259 248.44001,41.111076 C 252.07394,44.79973 252.37983,49.161787 251.14796,52.900479 C 248.65205,60.475477 242.11374,62.798306 235.29855,60.092035 z M 269.00906,55.75 L 269.01812,44.5 L 272.85843,50.5 C 274.9706,53.8 278.16344,58.8625 279.95362,61.75 C 282.84495,66.413626 283.58776,67 286.60425,67 L 290,67 L 290,50 L 290,33 L 286.5,33 L 283,33 L 283,43.676022 L 283,54.352045 L 279.75,49.710321 C 277.9625,47.157374 274.83195,42.353163 272.79321,39.034299 C 269.38623,33.48805 268.79985,33 265.54321,33 L 262,33 L 262,50 L 262,67 L 265.5,67 L 269,67 L 269.00906,55.75 z"
       id="path2529"
       style="fill:#ed2c2e;fill-opacity:1" />
  </g>
</svg>
