<?xml version="1.0" encoding="UTF-8" standalone="no"?>
<svg width="308px" height="244px" viewBox="0 0 308 244" version="1.1" xmlns="http://www.w3.org/2000/svg" xmlns:xlink="http://www.w3.org/1999/xlink">
    <!-- Generator: Sketch 3.8.1 (29687) - http://www.bohemiancoding.com/sketch -->
    <title>Slice 1</title>
    <desc>Created with Sketch.</desc>
    <defs></defs>
    <g id="Page-1" stroke="none" stroke-width="1" fill="none" fill-rule="evenodd">
        <g id="As_seen_on_TV">
            <g id="layer1" fill="#ED2C2E">
                <path d="M120.5,243.34222 C84.986243,241.23071 49.336121,236.53708 22.107108,230.38798 C15.532556,228.90326 14.625861,228.39176 12.277008,224.8424 C7.910923,218.2448 3.8395533,201.22138 1.8690543,181.32412 C-0.7730145,154.64565 0.257177,73.237851 3.5056127,52 C3.7159258,50.625 4.385601,45.780586 4.99378,41.234635 C6.990064,26.313029 11.686347,16.696602 17.773232,15.06657 C33.640974,10.81728 68.109744,5.3453027 98,2.3304301 C122.83457,-0.1745023 187.1557,-0.1750649 212,2.329433 C235.77499,4.7261368 254.43295,7.3819449 273.5,11.083459 C289.13279,14.118275 289.59441,14.280892 293.61345,18.168972 C297.00238,21.447478 298.09128,23.500346 299.7957,29.824192 C304.85727,48.60387 306.96695,71.110342 307.68943,114.03573 C308.58209,167.07257 305.54169,205.61939 299.27752,220.68382 L296.44384,227.49841 L284.47192,230.21197 C257.87334,236.2408 223.19794,240.97301 191,242.96824 C176.21013,243.88473 133.44049,244.11161 120.5,243.34222 L120.5,243.34222 Z" id="path2529"></path>
            </g>
            <path d="M263.00906,53.75 L263.01812,42.5 L266.85843,48.5 C268.9706,51.8 272.16344,56.8625 273.95362,59.75 C276.84495,64.413626 277.58776,65 280.60425,65 L284,65 L284,48 L284,31 L280.5,31 L277,31 L277,41.676022 L277,52.352045 L273.75,47.710321 C271.9625,45.157374 268.83195,40.353163 266.79321,37.034299 C263.38623,31.48805 262.79985,31 259.54321,31 L256,31 L256,48 L256,65 L259.5,65 L263,65 L263.00906,53.75 L263.00906,53.75 Z" id="path2529-path" fill="#FFFFFF"></path>
            <path d="M245.27536,61.73914 C252.90486,55.919835 253.93068,43.249679 247.36108,35.977915 C243.12115,31.284822 238.37109,29.559033 231.82699,30.334084 C222.48142,31.440929 217,37.837276 217,47.635899 C217,54.39058 219.84105,59.671114 225.32846,63.115656 C230.13363,66.131939 240.44943,65.420056 245.27536,61.73914 Z M229.29855,58.092035 C223.01225,54.157833 221.30051,46.820404 225.28733,40.897883 C229.84637,34.125315 237.28779,33.881259 242.44001,39.111076 C246.07394,42.79973 246.37983,47.161787 245.14796,50.900479 C242.65205,58.475477 236.11374,60.798306 229.29855,58.092035 Z" id="Combined-Shape" fill="#FFFFFF"></path>
            <path d="M176.00414,53.75 L176.00827,42.5 L179.46287,48 C181.3629,51.025 184.39854,56.082161 186.20874,59.238135 C189.1479,64.362405 189.84768,64.977539 192.75,64.988135 L196,65 L196,48 L196,31 L193.03383,31 L190.06766,31 L189.78383,41.740968 L189.5,52.481936 L182.53469,41.740968 C176.01038,31.680041 175.36142,31 172.28469,31 L169,31 L169,48 L169,65 L172.5,65 L176,65 L176.00414,53.75 L176.00414,53.75 Z" id="path2529-path" fill="#FFFFFF"></path>
            <path d="M163,62.5 C163,60.111111 163.85394,60 157,60 L151,60 L151,55 L151,50 L157,50 C163.71387,50 163,49.888889 163,47.5 C163,45.111111 163.99402,45 157,45 L151,45 L151,40.5 L151,36 L157,36 C164.27417,36 163,35.888889 163,33.5 C163,31.008772 164.36743,30.719847 153.5,31 L144,31 L144,48 L144,65 L153.5,65 C164.08728,65 163,64.991228 163,62.5 L163,62.5 Z" id="path2529-path" fill="#FFFFFF"></path>
            <path d="M139,62.5 C139,60.111111 139.71387,60 133,60 L127,60 L127,55 L127,50 L133,50 C139.99402,50.140077 139,49.888889 139,47.5 C139,45.111111 140.1341,45 133,45 L127,45 L127,40.5 L127,36 L133,36 C139.99402,36.140077 139,35.888889 139,33.5 C139,31.008772 140.36744,31 129.5,31 L120,31 L120,48 L120,65 L129.5,65 C140.50751,65 139,64.991228 139,62.5 L139,62.5 Z" id="path2529-path" fill="#FFFFFF"></path>
            <path d="M111.47918,62.611728 C114.54692,59.543988 115.62836,53.931207 113.93798,49.850278 C112.98431,47.547914 111.25657,46.118916 107.32357,44.379553 C103.03367,42.482358 102,41.561125 102,39.635055 C102,36.339051 104.48744,34.329723 106.5,36 C107.325,36.684689 108,37.894679 108,38.688867 C108,39.674157 108.87355,40.032331 110.75,39.816422 C113.01649,39.555634 113.45529,40.46121 113.2457,37 C112.92293,31.669784 105.09681,28.272268 99.94461,31.029644 C97.53678,32.318274 94.66654,34.165228 95,40.373615 C95.21791,44.430726 99.25301,48.5957 102.74146,49.471246 C106.6686,50.456897 108,51.856707 108,55 C108,60.528072 102.26296,60.000051 101.32053,56.287949 C100.89321,54.604791 100.17377,54.560306 97.43045,54.560306 C95.5437,54.560306 94,54.479584 94,55.065741 C94,56.659707 95.98727,60.211624 98.29928,62.75 C101.2306,65.968325 108.19566,65.895253 111.47918,62.611728 L111.47918,62.611728 Z" id="path2529-path" fill="#FFFFFF"></path>
            <path d="M73.350448,62.156099 C76.713993,58.645314 76.782069,53.549418 75.770643,49.53178 C75.384135,47.996473 72.151838,45.715728 68.91319,44.137651 C62.983128,41.248147 61.305423,37.977278 64.795371,36.109514 C66.33559,35.285214 67.346718,35.398665 68.849442,37.541853 C70.599912,40.038378 73.690621,39.253551 75.48185,39.029368 C77.087777,38.828377 73.346528,32.255824 71.055391,31.029644 C65.579748,28.099169 58.55834,31.506871 57.405023,37.65458 C56.371262,43.165001 58.819376,47.2774 64.402894,49.409765 C67.791829,50.704011 69.244672,51.827795 69.649142,53.738205 C70.780606,59.082384 65.297934,61.310947 63.02868,57.054253 C61.113121,53.461025 61.556132,54 59.05202,54 C55.611268,54 55.552169,53.25641 57.406302,59.429993 C58.707222,63.761579 61.344106,64.930531 66.562909,64.969591 C69.745473,64.993411 71.216186,64.383788 73.350448,62.156099 L73.350448,62.156099 Z" id="path2529-path" fill="#FFFFFF"></path>
            <path d="M30.895178,60.955529 L32.106931,56.911058 L38.717893,57.205529 C46.415235,56.517939 45.164478,56.657171 46.497578,61 C47.644798,64.737288 46.892624,64.821759 49.960245,65.083828 L54.77557,65.107351 L50.85273,54.303675 C48.695169,48.361654 46.496526,42.6 45.966857,41.5 C45.437189,40.4 44.39518,37.7 43.651281,35.5 C42.444613,31.931406 41.948258,31.5 39.049081,31.5 C35.505365,31.5 35.433061,31.62494 29.500337,48 C28.205107,51.575 26.214497,56.8625 25.076762,59.75 L23.008152,65 L26.345788,65 C29.379409,65 29.7938,64.631601 30.895178,60.955529 Z M35.558852,48.814575 C37.178484,43.711566 38.765538,40.811615 39.3877,41.818295 C39.75181,42.407437 40.69357,44.714333 41.4805,46.944731 L42.911282,51 L38.888253,51 C35.20652,51 34.924069,50.814599 35.558852,48.814575 Z" id="Combined-Shape" fill="#FFFFFF"></path>
            <path d="M247.55568,202.25 C255.32568,181.42344 258.01726,174.08879 262.14265,162.5 C264.29633,156.45 266.66637,150.15 267.4094,148.5 C268.15244,146.85 269.54883,143.025 270.5125,140 C271.47618,136.975 272.60831,134.05 273.02835,133.5 C273.44839,132.95 274.25077,130.925 274.81141,129 C275.98531,124.96931 279.68979,114.74236 286.33706,97.181118 C288.90168,90.405733 291.14008,83.228379 291.14008,82.429876 C291.14008,81.199742 287.91412,81.999925 270.79081,82.229295 L250.58162,82.5 L249.3655,86 C247.72738,90.714526 241.97701,109.31544 238.54544,121 C237.01094,126.225 234.94477,132.975 233.95395,136 C232.96313,139.025 230.73407,146.225 229.00047,152 C223.42956,170.55794 221.61926,176 221.01687,176 C220.50142,176 216.77102,164.66231 208.51387,138 C207.23639,133.875 205.00217,126.675 203.54895,122 C202.09574,117.325 199.73213,109.675 198.2965,105 C196.86086,100.325 194.65559,93.35 193.39589,89.5 L191.10552,82.5 L170.05276,82.230112 C158.32583,82.079778 148.71985,81.931499 148.71985,82.423803 C148.71985,82.909898 150.60443,87.951577 152.56539,93.113921 C154.52636,98.27626 156.97191,104.75 157.99996,107.5 C163.88222,123.23497 165.27846,127.01543 167.04855,132 C168.12277,135.025 169.44436,138.4 169.98543,139.5 C170.52649,140.6 172.75088,146.45 174.9285,152.5 C177.10613,158.55 180.2883,167.1 182,171.5 C183.7117,175.9 186.90195,184.45 189.08946,190.5 C191.27696,196.55 193.67359,202.85 194.41528,204.5 C195.15698,206.15 196.30186,209.1875 196.95946,211.25 L198.1551,215 L220.477,215 L242.7989,215 L247.55568,202.25 L247.55568,202.25 Z" id="path2529-path" fill="#FFFFFF"></path>
            <path d="M101,165 L101,115 L122,115 L143,115 L143,98.5 L143,82 L80,82 L17,82 L17,98.5 L17,115 L38,115 L59,115 L59,164.33333 C59,191.46667 59.3,213.96667 59.666667,214.33333 C60.033333,214.7 69.483333,215 80.666667,215 L101,215 L101,165 L101,165 Z" id="path2529-path" fill="#FFFFFF"></path>
        </g>
    </g>
</svg>