<?xml version="1.0" encoding="UTF-8" standalone="no"?>
<svg viewBox="-10 0 106 46" version="1.1" xmlns="http://www.w3.org/2000/svg" xmlns:xlink="http://www.w3.org/1999/xlink">
    <!-- Generator: Sketch 3.8.1 (29687) - http://www.bohemiancoding.com/sketch -->
    <title>Slice 1</title>
    <desc>Created with Sketch.</desc>
    <defs></defs>
    <g id="Page-1" stroke="none" stroke-width="1" fill="none" fill-rule="evenodd">
        <path d="M21.1816974,1.25 C22.8067055,1.43750094 23.6191974,1.62499906 23.6191974,1.8125 L23.9941974,1.625 C24.7754513,1.87500125 25.3379456,2.12499875 25.6816974,2.375 C25.9316986,2.24999938 26.1191967,2.1875 26.2441974,2.1875 C26.2441974,2.34375078 26.7441924,2.59374828 27.7441974,2.9375 L27.7441974,3.3125 C27.7441974,3.84375266 27.6191986,4.34374766 27.3691974,4.8125 C27.494198,4.8125 27.5566974,4.87499938 27.5566974,5 C26.1816905,6.03125516 24.6192061,7.59373953 22.8691974,9.6875 L19.3066974,14.75 L17.4316974,17.5625 C17.4316974,17.8125012 17.1816999,18.0624988 16.6816974,18.3125 C16.4629463,18.6875019 16.2129488,18.875 15.9316974,18.875 L16.3066974,19.4375 L16.3066974,19.625 C15.9316955,20.3750038 15.5566992,20.75 15.1816974,20.75 L15.3691974,21.125 C14.494193,23.12501 13.6192017,24.5624956 12.7441974,25.4375 L12.9316974,25.8125 C12.5879456,26.218752 12.3379481,26.718747 12.1816974,27.3125 L12.3691974,27.3125 C12.5566983,27.3125 13.7441864,26.1250119 15.9316974,23.75 C16.3066992,23.75 16.4941974,23.6875006 16.4941974,23.5625 L17.4316974,23.75 L18.7441974,23.75 C18.9941986,23.7812502 19.1191974,23.9062489 19.1191974,24.125 C19.2754481,23.9999994 19.587945,23.9375 20.0566974,23.9375 L20.0566974,24.125 L20.8066974,24.125 L21.7441974,24.3125 C21.7441974,24.1874994 21.8066967,24.125 21.9316974,24.125 C22.4316999,24.531252 23.4316899,24.9687477 24.9316974,25.4375 C24.9316974,25.6250009 25.0566961,25.8749984 25.3066974,26.1875 L25.3066974,26.5625 C25.3066974,27.5000047 24.4317061,28.2499972 22.6816974,28.8125 C22.6816974,29.1562517 21.8692055,29.8437448 20.2441974,30.875 L20.4316974,31.25 L14.9941974,36.3125 L14.6191974,36.125 C14.4629466,36.9375041 13.5879553,37.8749947 11.9941974,38.9375 C10.3066889,39.8125044 8.86920331,40.3749988 7.68169737,40.625 C5.93168862,40.4062489 5.05669737,40.1562514 5.05669737,39.875 C4.65044534,40.1250012 4.33794846,40.25 4.11919737,40.25 C3.74419549,40.1249994 3.55669737,40.0000006 3.55669737,39.875 C3.43169674,39.875 3.36919737,39.9374994 3.36919737,40.0625 C2.24419174,39.9374994 1.68169737,39.8125006 1.68169737,39.6875 L1.30669737,39.875 C1.05669612,39.875 0.931697369,39.6875019 0.931697369,39.3125 L0.556697369,39.5 C0.431696744,39.5 0.369197369,39.4375006 0.369197369,39.3125 L-0.00580263138,39.5 C-0.912057163,39.5 -1.53705091,38.5625094 -1.88080263,36.6875 C-1.4745506,35.0624919 -1.09955435,34.25 -0.755802631,34.25 C-0.755802631,34.1249994 -0.818302006,34.0625 -0.943302631,34.0625 C-0.568300756,32.6249928 -0.255803881,31.7500016 -0.00580263138,31.4375 C-0.130803256,31.4375 -0.193302631,31.3750006 -0.193302631,31.25 C-0.0683020064,31.25 0.181695494,31.0000025 0.556697369,30.5 C0.431696744,30.2499988 0.369197369,30.0625006 0.369197369,29.9375 C1.05670081,29.1874962 1.80669331,27.6250119 2.61919737,25.25 C3.61920237,23.6874922 4.99418862,21.1875172 6.74419737,17.75 C6.93169831,17.75 7.30669456,17.250005 7.86919737,16.25 C7.74419674,16.25 7.68169737,16.1875006 7.68169737,16.0625 C8.05669924,15.8749991 8.68169299,14.9375084 9.55669737,13.25 C10.2442008,12.5624966 11.5566877,10.6250159 13.4941974,7.4375 C15.1504556,5.15623859 16.5879413,3.34375672 17.8066974,2 C19.2129544,1.4999975 20.3379431,1.25 21.1816974,1.25 L21.1816974,1.25 Z M42.4147325,0.6875 L42.4147325,0.875 C42.6647337,0.749999375 42.8522318,0.6875 42.9772325,0.6875 C43.5084851,0.6875 44.1334789,0.81249875 44.8522325,1.0625 C45.0709835,0.937499375 45.320981,0.875 45.6022325,0.875 L45.7897325,0.875 L46.3522325,1.25 L46.7272325,1.0625 C46.7272325,1.46875203 47.7272225,1.78124891 49.7272325,2 L51.2272325,3.3125 C50.8522306,4.53125609 49.6022431,5.71874422 47.4772325,6.875 C47.4772325,7.15625141 46.9147381,7.59374703 45.7897325,8.1875 L44.8522325,9.5 C44.8522325,9.75000125 44.7272337,9.875 44.4772325,9.875 L44.2897325,9.875 L44.2897325,9.5 L44.1022325,9.5 L44.1022325,9.6875 C44.2272331,9.93750125 44.2897325,10.1249994 44.2897325,10.25 C43.7272296,10.3750006 43.2272346,10.9999944 42.7897325,12.125 C41.8834779,12.6562527 40.6334904,14.4687345 39.0397325,17.5625 C38.1647281,18.4062542 37.7272325,18.9062492 37.7272325,19.0625 C37.8522331,19.2812511 37.9147325,19.5312486 37.9147325,19.8125 L38.8522325,19.625 L38.8522325,19.8125 L41.8522325,18.875 C42.1022337,19.0000006 42.2897318,19.0625 42.4147325,19.0625 C42.4147325,18.8749991 42.6022306,18.6875009 42.9772325,18.5 L43.1647325,18.5 L43.5397325,18.6875 C43.5709826,18.4374988 43.6959814,18.3125 43.9147325,18.3125 C44.0397331,18.3125 44.1022325,18.3749994 44.1022325,18.5 L46.3522325,17.75 L46.3522325,17.9375 C46.9772356,17.8124994 47.2897325,17.6875006 47.2897325,17.5625 C50.3209976,17.968752 52.383477,18.468747 53.4772325,19.0625 C53.4772325,18.9374994 53.5397318,18.875 53.6647325,18.875 C55.383491,19.7812545 56.2584823,20.3437489 56.2897325,20.5625 C56.5397337,20.968752 56.6647325,21.2812489 56.6647325,21.5 L56.2897325,21.6875 L56.4772325,22.0625 L56.4772325,22.8125 C56.2584814,22.8125 55.6334876,23.7499906 54.6022325,25.625 C53.3522262,27.4062589 52.3522362,28.5312477 51.6022325,29 C51.6022325,29.4375022 51.352235,29.7499991 50.8522325,29.9375 C50.4772306,30.3750022 50.2897325,30.6874991 50.2897325,30.875 C48.195972,32.87501 47.0709832,33.875 46.9147325,33.875 C43.820967,37.468768 42.1959832,39.2812498 42.0397325,39.3125 C41.1647281,40.8437577 40.477235,41.7187489 39.9772325,41.9375 C39.5709804,43.4375075 39.1334848,44.1875 38.6647325,44.1875 L38.8522325,44.5625 C38.8522325,44.7187508 38.5397356,44.9687483 37.9147325,45.3125 L36.4147325,45.3125 L36.4147325,44.9375 L36.2272325,44.9375 L35.6647325,45.3125 L35.4772325,44.9375 L35.1022325,45.125 L33.7897325,45.125 C33.4459807,44.7812483 32.820987,44.5312508 31.9147325,44.375 C31.7897318,44.375 31.7272325,44.4374994 31.7272325,44.5625 C30.445976,44.4062492 29.6959835,44.2812505 29.4772325,44.1875 C29.2272312,44.3125006 29.0397331,44.375 28.9147325,44.375 L28.7272325,44 L28.7272325,43.8125 L28.9147325,43.4375 C28.6647312,43.4375 28.4772331,43.0625038 28.3522325,42.3125 C28.3522325,41.8437477 29.2272237,40.8437577 30.9772325,39.3125 C30.9772325,39.0937489 31.4772275,38.4062558 32.4772325,37.25 C34.977245,34.249985 37.4147206,31.5000125 39.7897325,29 C40.0084835,29 40.5709779,28.3125069 41.4772325,26.9375 C41.7584839,26.9375 42.5084764,26.0625088 43.7272325,24.3125 C43.0084789,24.3125 42.5709832,24.2500006 42.4147325,24.125 C42.4147325,24.3750012 41.7272393,24.6249988 40.3522325,24.875 C39.2897271,24.7499994 38.4147359,24.6875 37.7272325,24.6875 L36.0397325,24.6875 C35.9147318,24.6875 35.8522325,24.6250006 35.8522325,24.5 L35.4772325,24.6875 C34.8522293,24.5312492 34.5397325,24.3437511 34.5397325,24.125 L33.7897325,24.5 C31.5397212,23.8437467 29.7897387,23.218753 28.5397325,22.625 L27.4147325,21.125 L27.4147325,19.4375 C27.4147325,19.2499991 27.6022306,19.0625009 27.9772325,18.875 L27.7897325,18.5 C28.6647368,16.906242 29.1022325,15.9687514 29.1022325,15.6875 C30.4459892,13.3124881 31.3834798,12.0625006 31.9147325,11.9375 C32.4772353,10.2812417 34.9772103,7.21877234 39.4147325,2.75 C39.4147325,2.87500062 39.4772318,2.9375 39.6022325,2.9375 C39.6022325,2.21874641 40.5397231,1.46875391 42.4147325,0.6875 L42.4147325,0.6875 Z M73.3352675,0.6875 L73.3352675,0.875 C73.5852688,0.749999375 73.7727669,0.6875 73.8977675,0.6875 C74.4290202,0.6875 75.054014,0.81249875 75.7727675,1.0625 C75.9915186,0.937499375 76.2415161,0.875 76.5227675,0.875 L76.7102675,0.875 L77.2727675,1.25 L77.6477675,1.0625 C77.6477675,1.46875203 78.6477575,1.78124891 80.6477675,2 L82.1477675,3.3125 C81.7727657,4.53125609 80.5227782,5.71874422 78.3977675,6.875 C78.3977675,7.15625141 77.8352732,7.59374703 76.7102675,8.1875 L75.7727675,9.5 C75.7727675,9.75000125 75.6477688,9.875 75.3977675,9.875 L75.2102675,9.875 L75.2102675,9.5 L75.0227675,9.5 L75.0227675,9.6875 C75.1477682,9.93750125 75.2102675,10.1249994 75.2102675,10.25 C74.6477647,10.3750006 74.1477697,10.9999944 73.7102675,12.125 C72.804013,12.6562527 71.5540255,14.4687345 69.9602675,17.5625 C69.0852632,18.4062542 68.6477675,18.9062492 68.6477675,19.0625 C68.7727682,19.2812511 68.8352675,19.5312486 68.8352675,19.8125 L69.7727675,19.625 L69.7727675,19.8125 L72.7727675,18.875 C73.0227688,19.0000006 73.2102669,19.0625 73.3352675,19.0625 C73.3352675,18.8749991 73.5227657,18.6875009 73.8977675,18.5 L74.0852675,18.5 L74.4602675,18.6875 C74.4915177,18.4374988 74.6165165,18.3125 74.8352675,18.3125 C74.9602682,18.3125 75.0227675,18.3749994 75.0227675,18.5 L77.2727675,17.75 L77.2727675,17.9375 C77.8977707,17.8124994 78.2102675,17.6875006 78.2102675,17.5625 C81.2415327,17.968752 83.3040121,18.468747 84.3977675,19.0625 C84.3977675,18.9374994 84.4602669,18.875 84.5852675,18.875 C86.3040261,19.7812545 87.1790174,20.3437489 87.2102675,20.5625 C87.4602688,20.968752 87.5852675,21.2812489 87.5852675,21.5 L87.2102675,21.6875 L87.3977675,22.0625 L87.3977675,22.8125 C87.1790165,22.8125 86.5540227,23.7499906 85.5227675,25.625 C84.2727613,27.4062589 83.2727713,28.5312477 82.5227675,29 C82.5227675,29.4375022 82.27277,29.7499991 81.7727675,29.9375 C81.3977657,30.3750022 81.2102675,30.6874991 81.2102675,30.875 C79.1165071,32.87501 77.9915183,33.875 77.8352675,33.875 C74.7415021,37.468768 73.1165183,39.2812498 72.9602675,39.3125 C72.0852632,40.8437577 71.39777,41.7187489 70.8977675,41.9375 C70.4915155,43.4375075 70.0540199,44.1875 69.5852675,44.1875 L69.7727675,44.5625 C69.7727675,44.7187508 69.4602707,44.9687483 68.8352675,45.3125 L67.3352675,45.3125 L67.3352675,44.9375 L67.1477675,44.9375 L66.5852675,45.3125 L66.3977675,44.9375 L66.0227675,45.125 L64.7102675,45.125 C64.3665158,44.7812483 63.7415221,44.5312508 62.8352675,44.375 C62.7102669,44.375 62.6477675,44.4374994 62.6477675,44.5625 C61.3665111,44.4062492 60.6165186,44.2812505 60.3977675,44.1875 C60.1477663,44.3125006 59.9602682,44.375 59.8352675,44.375 L59.6477675,44 L59.6477675,43.8125 L59.8352675,43.4375 C59.5852663,43.4375 59.3977682,43.0625038 59.2727675,42.3125 C59.2727675,41.8437477 60.1477588,40.8437577 61.8977675,39.3125 C61.8977675,39.0937489 62.3977625,38.4062558 63.3977675,37.25 C65.89778,34.249985 68.3352557,31.5000125 70.7102675,29 C70.9290186,29 71.491513,28.3125069 72.3977675,26.9375 C72.679019,26.9375 73.4290115,26.0625088 74.6477675,24.3125 C73.929014,24.3125 73.4915183,24.2500006 73.3352675,24.125 C73.3352675,24.3750012 72.6477744,24.6249988 71.2727675,24.875 C70.2102622,24.7499994 69.335271,24.6875 68.6477675,24.6875 L66.9602675,24.6875 C66.8352669,24.6875 66.7727675,24.6250006 66.7727675,24.5 L66.3977675,24.6875 C65.7727644,24.5312492 65.4602675,24.3437511 65.4602675,24.125 L64.7102675,24.5 C62.4602563,23.8437467 60.7102738,23.218753 59.4602675,22.625 L58.3352675,21.125 L58.3352675,19.4375 C58.3352675,19.2499991 58.5227657,19.0625009 58.8977675,18.875 L58.7102675,18.5 C59.5852719,16.906242 60.0227675,15.9687514 60.0227675,15.6875 C61.3665243,13.3124881 62.3040149,12.0625006 62.8352675,11.9375 C63.3977704,10.2812417 65.8977454,7.21877234 70.3352675,2.75 C70.3352675,2.87500062 70.3977669,2.9375 70.5227675,2.9375 C70.5227675,2.21874641 71.4602582,1.46875391 73.3352675,0.6875 L73.3352675,0.6875 Z" id="CSS" fill="#1CCCFF"></path>
    </g>
</svg>
