<?xml version="1.0" encoding="UTF-8" standalone="no"?>
<svg width="19px" height="42px" viewBox="0 0 19 42" version="1.1" xmlns="http://www.w3.org/2000/svg" xmlns:xlink="http://www.w3.org/1999/xlink" xmlns:sketch="http://www.bohemiancoding.com/sketch/ns">
    <!-- Generator: Sketch 3.5.1 (25234) - http://www.bohemiancoding.com/sketch -->
    <title>Untitled 16</title>
    <desc>Created with Sketch.</desc>
    <defs></defs>
    <g id="Page-1" stroke="none" stroke-width="1" fill="none" fill-rule="evenodd" sketch:type="MSPage">
        <path d="M17.7415139,1 C17.7415139,11.0124512 1.09308099,11.0075684 1.09308099,20.9750977 C1.09308099,30.942627 17.7415139,31.1801758 17.7415139,41" id="Path-2" stroke="#3E3E3E" stroke-width="2" stroke-linecap="round" sketch:type="MSShapeGroup"></path>
        <path d="M1.09308099,1 C1.09308099,11.0124512 17.7415139,11.0075684 17.7415139,20.9750977 C17.7415139,30.942627 1.09308099,31.1801758 1.09308099,41" id="Path-2-Copy" stroke="#3E3E3E" stroke-width="2" stroke-linecap="round" sketch:type="MSShapeGroup"></path>
        <path d="M1.41804795,1.5 L17.30387,1.5" id="Line" stroke="#3E3E3E" stroke-linecap="square" sketch:type="MSShapeGroup"></path>
        <path d="M3.09023974,5.5 L15.6316782,5.5" id="Line-Copy" stroke="#3E3E3E" stroke-linecap="square" sketch:type="MSShapeGroup"></path>
        <path d="M2.25414385,18.5 L16.4677741,18.5" id="Line-Copy-4" stroke="#3E3E3E" stroke-linecap="square" sketch:type="MSShapeGroup"></path>
        <path d="M2.25414385,22.5 L16.4677741,22.5" id="Line-Copy-6" stroke="#3E3E3E" stroke-linecap="square" sketch:type="MSShapeGroup"></path>
        <path d="M3.92633564,14.5 L14.7955823,14.5" id="Line-Copy-3" stroke="#3E3E3E" stroke-linecap="square" sketch:type="MSShapeGroup"></path>
        <path d="M3.92633564,26.5 L14.7955823,26.5" id="Line-Copy-7" stroke="#3E3E3E" stroke-linecap="square" sketch:type="MSShapeGroup"></path>
        <path d="M3.92633564,34.5 L14.7955823,34.5" id="Line-Copy-8" stroke="#3E3E3E" stroke-linecap="square" sketch:type="MSShapeGroup"></path>
        <path d="M2.25414385,38.5 L16.4677741,38.5" id="Line-Copy-9" stroke="#3E3E3E" stroke-linecap="square" sketch:type="MSShapeGroup"></path>
    </g>
</svg>