<?xml version="1.0" encoding="UTF-8" standalone="no"?>
<svg width="717px" height="542px" viewBox="0 0 717 542" version="1.1" xmlns="http://www.w3.org/2000/svg" xmlns:xlink="http://www.w3.org/1999/xlink">
    <!-- Generator: Sketch 3.8.1 (29687) - http://www.bohemiancoding.com/sketch -->
    <title>Artboard</title>
    <desc>Created with Sketch.</desc>
    <defs>
        <rect id="path-1" x="37.2444444" y="144.5" width="237.511111" height="167" rx="4"></rect>
        <filter x="-50%" y="-50%" width="200%" height="200%" filterUnits="objectBoundingBox" id="filter-2">
            <feOffset dx="0" dy="2" in="SourceAlpha" result="shadowOffsetOuter1"></feOffset>
            <feGaussianBlur stdDeviation="5" in="shadowOffsetOuter1" result="shadowBlurOuter1"></feGaussianBlur>
            <feColorMatrix values="0 0 0 0 0   0 0 0 0 0   0 0 0 0 0  0 0 0 0.5 0" type="matrix" in="shadowBlurOuter1"></feColorMatrix>
        </filter>
    </defs>
    <g id="Page-1" stroke="none" stroke-width="1" fill="none" fill-rule="evenodd">
        <g id="Artboard">
            <rect id="Rectangle-1" fill="#444455" x="0" y="0" width="717" height="542"></rect>
            <rect id="Rectangle-2" fill="#B8C8CC" x="466" y="163" width="191" height="134" rx="4"></rect>
            <rect id="Rectangle-2-Copy" fill="#B8C8CC" x="263" y="163" width="191" height="134" rx="4"></rect>
            <rect id="Rectangle-2-Copy-2" fill="#B8C8CC" x="263" y="331" width="191" height="134" rx="4"></rect>
            <rect id="Rectangle-2-Copy-4" fill="#B8C8CC" x="60" y="331" width="191" height="134" rx="4"></rect>
            <rect id="Rectangle-2-Copy-5" fill="#B8C8CC" x="466" y="331" width="191" height="134" rx="4"></rect>
            <rect id="Rectangle-2-Copy-6" fill="#B8C8CC" x="669" y="331" width="191" height="134" rx="4"></rect>
            <rect id="Rectangle-2-Copy-11" fill="#B8C8CC" x="263" y="499" width="191" height="134" rx="4"></rect>
            <rect id="Rectangle-2-Copy-10" fill="#B8C8CC" x="60" y="499" width="191" height="134" rx="4"></rect>
            <rect id="Rectangle-2-Copy-9" fill="#B8C8CC" x="466" y="499" width="191" height="134" rx="4"></rect>
            <rect id="Rectangle-2-Copy-8" fill="#B8C8CC" x="669" y="499" width="191" height="134" rx="4"></rect>
            <rect id="Rectangle-2-Copy-7" fill="#B8C8CC" x="669" y="163" width="191" height="134" rx="4"></rect>
            <g id="Rectangle-2-Copy-3">
                <use fill="black" fill-opacity="1" filter="url(#filter-2)" xlink:href="#path-1"></use>
                <use fill="#97E9FF" fill-rule="evenodd" xlink:href="#path-1"></use>
            </g>
        </g>
    </g>
</svg>