<?xml version="1.0" encoding="UTF-8" standalone="no"?>
<svg xmlns="http://www.w3.org/2000/svg"  style="background: rgb(128,99,127)" height="256" width="256" viewBox="0 0 256 256"><path d="M166,71L141,62 187,73 " fill="rgba(95,131,186,0.84)"></path><path d="M213,155L255,231 11,143 " fill="rgba(128,22,2,0.93)"></path><path d="M172,231L199,189 88,24 " fill="rgba(210,240,122,0.48)"></path><path d="M51,203L0,217 54,94 " fill="rgba(197,8,2,0.74)"></path><path d="M106,79L39,30 1,80 " fill="rgba(94,17,17,0.65)"></path><path d="M179,11L136,196 122,188 " fill="rgba(196,81,76,0.35)"></path><path d="M166,250L56,96 26,61 " fill="rgba(33,195,40,0.84)"></path><path d="M43,112L100,42 203,237 " fill="rgba(7,3,40,0.48)"></path><path d="M170,67L175,239 255,108 " fill="rgba(123,161,217,0.76)"></path><path d="M50,126L183,244 196,244 " fill="rgba(255,154,226,0.98)"></path><path d="M63,244L10,253 17,249 " fill="rgba(13,6,234,0.27)"></path><path d="M106,64L240,32 52,247 " fill="rgba(71,189,81,0.51)"></path><path d="M239,32L47,77 203,230 " fill="rgba(174,56,192,0.52)"></path><path d="M67,253L0,46 234,100 " fill="rgba(254,24,69,0.25)"></path><path d="M215,228L119,1 175,201 " fill="rgba(12,23,28,0.34)"></path><path d="M117,176L167,19 179,94 " fill="rgba(225,225,18,0.01)"></path><path d="M255,128L85,156 255,207 " fill="rgba(176,143,165,1)"></path><path d="M180,17L0,255 184,205 " fill="rgba(20,5,169,0.46)"></path><path d="M0,238L59,2 187,13 " fill="rgba(204,3,3,0.31)"></path><path d="M109,119L70,254 105,255 " fill="rgba(221,185,254,0.48)"></path><path d="M142,91L102,0 45,47 " fill="rgba(39,234,254,0.37)"></path><path d="M165,28L179,146 38,56 " fill="rgba(123,0,0,0.92)"></path><path d="M112,51L15,26 244,85 " fill="rgba(141,24,49,0.51)"></path><path d="M174,60L41,120 86,107 " fill="rgba(14,60,70,0.49)"></path><path d="M70,32L11,113 45,115 " fill="rgba(61,208,122,0.31)"></path><path d="M241,160L162,138 105,221 " fill="rgba(152,74,153,0.15)"></path><path d="M22,187L158,234 142,48 " fill="rgba(65,3,17,1)"></path><path d="M24,178L208,199 137,126 " fill="rgba(198,81,58,0.38)"></path><path d="M183,199L147,136 222,57 " fill="rgba(153,93,26,0.1)"></path><path d="M95,59L123,64 33,150 " fill="rgba(251,98,202,1)"></path><path d="M15,94L94,26 2,84 " fill="rgba(194,100,80,0.71)"></path><path d="M159,240L228,142 205,238 " fill="rgba(83,173,92,0)"></path><path d="M34,41L62,10 114,118 " fill="rgba(169,65,64,0.91)"></path><path d="M43,149L45,56 25,65 " fill="rgba(58,131,196,0.1)"></path><path d="M200,198L255,0 100,0 " fill="rgba(63,130,180,0.55)"></path><path d="M68,32L128,5 8,134 " fill="rgba(105,138,156,0.93)"></path><path d="M243,255L138,28 65,239 " fill="rgba(33,38,15,0.55)"></path><path d="M0,103L203,91 31,221 " fill="rgba(128,124,191,0.62)"></path><path d="M88,68L16,19 30,113 " fill="rgba(31,202,64,0.5)"></path><path d="M205,0L177,44 122,0 " fill="rgba(169,141,14,0.19)"></path><path d="M121,188L48,69 126,79 " fill="rgba(161,215,131,0.15)"></path><path d="M55,190L56,2 12,61 " fill="rgba(239,110,8,0.15)"></path><path d="M173,2L85,143 138,1 " fill="rgba(94,207,203,0.08)"></path><path d="M192,0L0,255 0,0 " fill="rgba(0,71,211,0.38)"></path><path d="M238,208L71,61 46,136 " fill="rgba(23,0,0,0.99)"></path><path d="M32,87L142,192 101,167 " fill="rgba(123,47,168,0.99)"></path><path d="M247,200L255,65 132,157 " fill="rgba(158,132,124,0.24)"></path><path d="M74,242L153,29 16,228 " fill="rgba(61,68,175,0.8)"></path><path d="M148,58L111,198 121,176 " fill="rgba(208,76,103,0.35)"></path><path d="M66,137L187,111 155,208 " fill="rgba(216,128,47,0.89)"></path><path d="M81,94L165,204 82,55 " fill="rgba(200,188,126,0.91)"></path><path d="M29,168L243,238 74,161 " fill="rgba(107,111,22,0.25)"></path><path d="M63,57L171,196 231,100 " fill="rgba(110,4,38,0.06)"></path><path d="M80,99L190,193 97,83 " fill="rgba(237,187,236,0.84)"></path><path d="M184,31L139,223 202,171 " fill="rgba(64,0,0,1)"></path><path d="M183,0L101,245 0,227 " fill="rgba(246,2,15,0.05)"></path><path d="M82,66L192,56 72,108 " fill="rgba(249,251,125,0.48)"></path><path d="M82,105L140,198 81,34 " fill="rgba(103,197,6,0)"></path><path d="M154,190L90,191 160,139 " fill="rgba(250,119,123,0.49)"></path><path d="M48,127L136,242 50,180 " fill="rgba(7,1,0,0.99)"></path><path d="M255,0L0,0 255,252 " fill="rgba(29,116,127,0.47)"></path><path d="M47,192L24,94 95,127 " fill="rgba(252,141,67,0.51)"></path><path d="M190,170L125,203 177,67 " fill="rgba(14,0,0,0.28)"></path><path d="M62,64L143,32 195,165 " fill="rgba(31,18,8,0.77)"></path><path d="M173,191L0,64 0,90 " fill="rgba(122,66,97,0.67)"></path><path d="M59,146L77,15 18,96 " fill="rgba(40,208,208,0.29)"></path><path d="M167,63L88,71 98,148 " fill="rgba(238,253,225,0.93)"></path><path d="M138,112L1,107 0,204 " fill="rgba(14,106,175,0.26)"></path><path d="M191,63L73,71 251,8 " fill="rgba(191,165,219,0.04)"></path><path d="M127,5L114,2 107,102 " fill="rgba(97,177,154,0.05)"></path><path d="M31,159L0,213 184,127 " fill="rgba(130,31,64,0.86)"></path><path d="M183,59L28,190 98,38 " fill="rgba(73,3,1,0.2)"></path><path d="M168,44L127,64 191,128 " fill="rgba(16,16,10,0.89)"></path><path d="M165,157L40,98 16,255 " fill="rgba(15,128,103,0.2)"></path><path d="M65,200L141,63 64,155 " fill="rgba(250,246,246,0.25)"></path><path d="M159,112L108,190 173,144 " fill="rgba(235,247,174,0.25)"></path><path d="M88,33L0,28 0,254 " fill="rgba(67,70,136,0.38)"></path><path d="M128,63L94,200 73,90 " fill="rgba(226,121,123,0.51)"></path><path d="M206,126L36,123 238,77 " fill="rgba(40,16,8,0.05)"></path><path d="M38,135L78,90 163,164 " fill="rgba(93,158,240,0.13)"></path><path d="M168,174L66,147 151,62 " fill="rgba(233,123,119,0.51)"></path><path d="M186,255L15,255 200,136 " fill="rgba(19,32,15,0.75)"></path><path d="M117,199L167,159 98,63 " fill="rgba(127,129,138,0.23)"></path><path d="M168,88L63,69 127,163 " fill="rgba(240,189,193,0.31)"></path><path d="M159,239L47,231 192,218 " fill="rgba(204,215,248,0.15)"></path><path d="M242,146L159,246 110,241 " fill="rgba(205,126,150,0.11)"></path><path d="M157,222L207,156 77,214 " fill="rgba(0,0,8,0.49)"></path><path d="M191,63L145,37 72,197 " fill="rgba(74,35,20,0.35)"></path><path d="M0,0L95,242 0,255 " fill="rgba(31,128,120,0.47)"></path><path d="M208,131L63,234 16,57 " fill="rgba(205,70,96,0.05)"></path><path d="M204,253L255,186 93,233 " fill="rgba(119,188,251,0.05)"></path><path d="M79,63L13,15 7,155 " fill="rgba(215,93,119,0.02)"></path><path d="M64,129L68,58 35,97 " fill="rgba(70,119,135,0.91)"></path><path d="M143,60L80,80 174,136 " fill="rgba(223,127,124,0.5)"></path><path d="M144,175L64,110 95,106 " fill="rgba(130,34,43,0.35)"></path><path d="M71,91L176,135 76,192 " fill="rgba(225,181,122,0.27)"></path><path d="M130,2L165,20 48,224 " fill="rgba(241,252,229,0.05)"></path><path d="M63,162L92,220 68,139 " fill="rgba(9,3,3,0.68)"></path><path d="M167,111L128,192 80,176 " fill="rgba(228,142,143,0.36)"></path><path d="M73,225L9,87 65,34 " fill="rgba(29,107,167,0.43)"></path></svg>
