<?xml version="1.0" encoding="UTF-8" standalone="no"?>
<svg viewBox="0 0 298 130" version="1.1" xmlns="http://www.w3.org/2000/svg" xmlns:xlink="http://www.w3.org/1999/xlink">
    <!-- Generator: Sketch 3.8.1 (29687) - http://www.bohemiancoding.com/sketch -->
    <title>Slice 1</title>
    <desc>Created with Sketch.</desc>
    <defs></defs>
    <g id="Page-1" stroke="none" stroke-width="1" fill="none" fill-rule="evenodd">
        <path d="M12.3834298,85.832 C10.8474298,97.832 4.70342982,94.088 4.70342982,98.216 C4.70342982,101.192 8.63942982,101 9.69542982,101 L20.6394298,101 C21.6954298,101 25.6314298,101.192 25.6314298,98.216 C25.6314298,94.088 19.4874298,97.832 17.9514298,85.832 L17.9514298,56.84 L12.5754298,47.24 L12.3834298,47.24 L12.3834298,85.832 Z M56.8314298,60.2 L62.2074298,69.896 L62.3994298,69.896 L62.3994298,46.568 C62.3994298,32.84 70.2714298,36.488 70.2714298,32.072 C70.2714298,29.384 67.1034298,29.192 66.1434298,29.192 L53.0874298,29.192 C52.1274298,29.192 48.9594298,29.384 48.9594298,32.072 C48.9594298,36.488 56.8314298,32.84 56.8314298,46.568 L56.8314298,60.2 Z M34.4634298,29.192 L9.79142982,29.192 C7.77542982,29.288 4.89542982,29.288 4.89542982,32.168 C4.89542982,34.28 6.14342982,34.664 7.77542982,35.24 C10.9434298,36.296 11.4234298,37.736 12.9594298,40.424 L48.0954298,101 L62.3994298,101 L62.3994298,77.768 L34.4634298,29.192 Z M112.113715,27.752 C91.7617149,29.576 82.2577149,45.992 82.2577149,65.096 C82.2577149,84.2 91.7617149,100.616 112.113715,102.44 L112.113715,96.872 C107.601715,95.24 107.217715,92.36 107.217715,89.96 L107.217715,40.232 C107.217715,37.832 107.601715,34.952 112.113715,33.32 L112.113715,27.752 Z M116.433715,102.44 C136.785715,100.616 146.289715,84.2 146.289715,65.096 C146.289715,45.992 136.785715,29.576 116.433715,27.752 L116.433715,33.32 C120.945715,34.952 121.329715,37.832 121.329715,40.232 L121.329715,89.96 C121.329715,92.36 120.945715,95.24 116.433715,96.872 L116.433715,102.44 Z M191.204,34.76 C196.292,35.528 197.156,39.464 197.156,43.784 L197.156,58.28 C197.156,62.984 196.868,66.92 191.204,67.976 L191.204,73.544 C200.324,73.544 205.7,72.584 210.212,69.992 C217.316,65.768 220.1,59.432 220.1,51.368 C220.1,43.304 217.316,36.968 210.212,32.744 C205.7,30.152 200.324,29.192 191.204,29.192 L191.204,34.76 Z M163.364,90.248 C163.364,93.8 163.46,94.376 160.1,95.432 C158.852,95.816 157.988,96.68 157.988,98.024 C157.988,100.808 161.156,101 161.54,101 L188.708,101 C189.092,101 192.26,100.808 192.26,98.024 C192.26,96.68 191.396,95.816 190.148,95.432 C186.788,94.376 186.884,93.8 186.884,90.248 L186.884,29.192 L161.54,29.192 C161.156,29.192 157.988,29.384 157.988,32.168 C157.988,33.512 158.852,34.376 160.1,34.76 C163.46,35.816 163.364,36.392 163.364,39.944 L163.364,90.248 Z M233.526285,32.168 C233.526285,33.512 234.390285,34.376 235.638285,34.76 C238.998285,35.816 238.902285,36.392 238.902285,39.944 L238.902285,90.248 C238.902285,93.8 238.998285,94.376 235.638285,95.432 C234.390285,95.816 233.526285,96.68 233.526285,98.024 C233.526285,100.808 236.694285,101 237.078285,101 L262.422285,101 L262.422285,29.192 L237.078285,29.192 C236.694285,29.192 233.526285,29.384 233.526285,32.168 L233.526285,32.168 Z M266.742285,34.76 C275.190285,36.104 280.086285,40.808 282.582285,48.584 C283.062285,50.024 283.542285,50.984 285.174285,50.984 C288.054285,50.984 288.150285,49.16 288.150285,48.68 L288.150285,29.192 L266.742285,29.192 L266.742285,34.76 Z M266.742285,101 L288.822285,101 L288.822285,81.8 C288.822285,81.416 289.110285,78.536 286.038285,78.536 C284.310285,78.536 283.734285,80.072 283.062285,81.512 C280.470285,89.192 274.518285,94.472 266.742285,95.432 L266.742285,101 Z M266.742285,67.208 C270.774285,68.264 272.598285,72.008 273.462285,75.656 C273.942285,77.288 274.518285,78.824 276.534285,78.824 C279.510285,78.824 279.030285,75.368 279.030285,74.6 L279.030285,53.864 C279.030285,53.096 279.510285,49.64 276.534285,49.64 C274.518285,49.64 273.942285,51.176 273.462285,52.808 C272.598285,56.456 270.774285,60.2 266.742285,61.256 L266.742285,67.208 Z" id="NOPE" fill="#FF1C1C" transform="translate(148.922857, 65.096000) rotate(-11.000000) translate(-148.922857, -65.096000) "></path>
    </g>
</svg>
