<?xml version="1.0" encoding="UTF-8" standalone="no"?>
<svg width="159px" height="400px" viewBox="0 0 159 400" version="1.1" xmlns="http://www.w3.org/2000/svg" xmlns:xlink="http://www.w3.org/1999/xlink">
    <!-- Generator: Sketch 3.8.1 (29687) - http://www.bohemiancoding.com/sketch -->
    <title>Slice 1</title>
    <desc>Created with Sketch.</desc>
    <defs></defs>
    <g id="Page-1" stroke="none" stroke-width="1" fill="none" fill-rule="evenodd">
        <path d="M21.5,379.425781 C21.5,379.425781 40.2109375,399.832031 79.1054687,399.832031 C118,399.832031 139.835937,379.039062 139.835937,379.039062 C139.835937,379.039062 156.117187,277.546875 157.894531,198.273437 C159.671875,119 158.671875,17.078125 158.671875,17.078125 C158.671875,17.078125 134.960938,0.71484375 78.2304688,0.71484375 C21.5,0.71484375 0.1328125,18.4257812 0.1328125,18.4257812 C0.1328125,18.4257812 0.1328125,117.253906 0.1328125,198.273437 C0.1328125,279.292969 21.5,379.425781 21.5,379.425781 Z" id="Path-1" fill="#444455"></path>
        <path d="M91.1064318,141.170519 L116.334843,166.398931 C106.174715,174.296888 93.4078503,179 79.5425144,179 C65.6771785,179 52.9103133,174.296888 42.7501855,166.398931 L67.9785969,141.170519 C71.4367109,142.977935 75.3702546,144 79.5425144,144 C83.7147741,144 87.6483179,142.977935 91.1064318,141.170519 Z M57.3719952,107.436083 L32.1435837,82.2076711 C24.2456264,92.3677989 19.5425144,105.134664 19.5425144,119 C19.5425144,132.865336 24.2456264,145.632201 32.1435837,155.792329 L57.3719952,130.563917 C55.5645792,127.105803 54.5425144,123.17226 54.5425144,119 C54.5425144,114.82774 55.5645792,110.894197 57.3719952,107.436083 Z M101.713034,130.563917 L126.941445,155.792329 C134.839402,145.632201 139.542514,132.865336 139.542514,119 C139.542514,105.134664 134.839402,92.3677989 126.941445,82.2076711 L101.713034,107.436083 C103.52045,110.894197 104.542514,114.82774 104.542514,119 C104.542514,123.17226 103.52045,127.105803 101.713034,130.563917 Z M67.9785969,96.8294808 L42.7501855,71.6010694 C52.9103133,63.703112 65.6771785,59 79.5425144,59 C93.4078503,59 106.174715,63.703112 116.334843,71.6010694 L91.1064318,96.8294808 C87.6483179,95.0220649 83.7147741,94 79.5425144,94 C75.3702546,94 71.4367109,95.0220649 67.9785969,96.8294808 Z" id="Combined-Shape" fill="#00CAFF"></path>
    </g>
</svg>