<?xml version="1.0" encoding="UTF-8" standalone="no"?>
<svg width="2000px" height="1400px" viewBox="0 0 2000 1400" version="1.1" xmlns="http://www.w3.org/2000/svg" xmlns:xlink="http://www.w3.org/1999/xlink">
    <!-- Generator: Sketch 3.8.1 (29687) - http://www.bohemiancoding.com/sketch -->
    <title>10feet</title>
    <desc>Created with Sketch.</desc>
    <defs></defs>
    <g id="Page-1" stroke="none" stroke-width="1" fill="none" fill-rule="evenodd">
        <path d="M537.039062,607.03125 L809.523438,606.515625 L1215.63281,602.3125 L1505.45312,603.703125 C1505.45312,603.703125 1504.14844,660.75 1504.14844,682.859375 C1504.14844,704.96875 1507.63281,759.21875 1507.63281,759.21875 C1507.63281,759.21875 1069.42969,759.914062 956.140625,759.914062 C842.851562,759.914062 538.859375,761.398438 538.859375,761.398438 L537.039062,607.03125 Z" id="Path-45" fill="#000000"></path>
        <g id="tv" transform="translate(605.000000, 98.000000)" fill="#000000">
            <path d="M406.745066,589.708878 C505.631964,593.281773 585.795634,553.691298 585.795634,509.26136 C585.795634,503.058881 584.233361,497.020346 581.275972,491.220859 C554.2455,491.220859 498.32133,488.779656 445.701654,488.295647 C441.263417,488.254823 443.715411,461.058274 439.231384,461.016101 C430.092368,460.930147 393.350913,461.824238 384.155444,461.734737 C374.498013,461.640739 387.70506,489.78146 378.188279,489.686668 C307.239861,488.979989 248.120985,488.295647 233.835712,488.295647 C227.694498,493.792958 227.963101,526.542805 233.835712,533.598838 C264.687403,570.667624 307.858168,586.135983 406.745066,589.708878 Z" id="Oval-1"></path>
            <path d="M39.4469914,468.356287 C20.0378236,468.356287 714.870161,467.891067 757.534975,467.891067 C800.199788,467.891067 797.596652,427.128429 797.596652,427.128429 C797.596652,427.128429 795.212416,318.38309 795.212439,219.644649 C795.212461,120.906208 797.331197,75.6867557 797.331219,42.0326902 C797.331242,8.3786248 753.274085,2.93089041 753.274085,2.93089041 C753.274085,2.93089041 671.623344,-3.76363514 562.106821,3.65198249 C452.590299,11.0676001 313.857601,10.3604648 239.108094,10.360465 C164.358588,10.3604652 100.086671,8.94154225 51.195871,8.94154185 C2.30507121,8.94154145 1.42029659,47.7735137 1.42029659,47.7735137 C1.42029659,47.7735137 2.30507151,124.888485 2.30507151,250.479477 C2.30507151,376.070469 0.642625996,364.481798 0.642625996,419.163851 C0.642625996,473.845903 58.8561591,468.356287 39.4469914,468.356287 Z M82.2887244,53.1654216 C107.1509,46.9965951 726.241883,42.7072602 733.301455,47.9363409 C740.361028,53.1654216 746.847825,54.8681304 745.655707,87.9081034 C744.463589,120.948076 749.085917,336.692842 751.470153,391.346969 C753.854388,446.001096 699.096134,433.723922 699.096134,433.723922 C699.096134,433.723922 559.636979,426.444632 392.167713,426.444633 C224.698448,426.444634 90.2126595,433.723923 90.2126595,433.723923 C90.2126595,433.723923 42.2019782,446.480275 51.6457863,376.115644 C61.0895945,305.751012 49.3518137,148.6101 49.3518138,100.887761 C49.3518139,53.1654216 57.4265491,59.3342481 82.2887244,53.1654216 Z" id="Combined-Shape"></path>
            <path d="M412.471305,154.124924 C345.738218,154.124924 330.211254,196.240912 330.211254,224.497897 C330.211254,252.754882 344.367779,302.851658 404.686761,299.129349 C465.005743,295.40704 482.285072,270.622526 482.285072,227.316297 C482.285072,184.010068 479.204392,154.124924 412.471305,154.124924 Z M383.998184,191.269412 L380.740583,259.98054 L453.550781,223.464858 C453.550781,223.464858 430.921685,215.203353 415.243074,208.477371 C399.564464,201.751389 383.998184,191.269412 383.998184,191.269412 Z" id="Combined-Shape"></path>
        </g>
        <g id="flowers" transform="translate(25.000000, 24.000000)" stroke="#000000">
            <g id="Group-4" transform="translate(206.000000, 73.000000)" stroke-width="5" stroke-linejoin="round">
                <path d="M208.714844,151.28125 C208.714844,151.28125 293.753906,27.6171875 234.1875,5.0234375 C174.621094,-17.5703125 126.550781,58.4921906 121.371094,73.7265625 C116.191406,88.9609344 114.796875,120.617188 114.796875,120.617188 C114.796875,120.617188 87.5820313,99.3671904 58.0195313,99.3671875 C28.4570312,99.3671846 -16.6953124,167.0703 7.9921875,214.351562 C32.6796874,261.632825 95.7734375,241.824219 95.7734375,241.824219 C95.7734375,241.824219 47.0195323,309.750012 124.597656,354.898438 C149.604975,369.452038 199.97265,362.699231 208.714837,326.910169 C217.457025,291.121106 184.949219,247.261719 184.949219,247.261719 C184.949219,247.261719 254.648429,272.64844 296.886719,238.207031 C339.125009,203.765622 347.406257,171.113284 290.796875,149.257812 C234.187493,127.402341 208.714844,151.28125 208.714844,151.28125 Z" id="Path-2" fill="#FE7829"></path>
                <path d="M186.242188,179.492188 L169.796875,164.34375 C169.796875,164.34375 258.496092,57.6601562 221.996092,31.1835937 C206.198141,19.7239929 164.229553,32.4269813 146.406248,59.050781 C123.050121,93.9393071 125.91283,139.594177 121.800779,143.300784 C114.634334,149.760623 62.0700432,106.122611 41.09375,137.78125 C13.4570317,179.492189 19.320315,219.906249 58.9375,228.171875 C98.554685,236.437501 116.148437,216.929688 116.148437,216.929688 L129.722654,221.925783 C129.722654,221.925783 111.485298,240.994061 103.718747,264.242189 C96.8207918,284.890294 99.0804635,309.018788 116.148435,323.24608 C152.433587,353.492174 192.60156,347.328111 192.601562,303.921875 C192.601565,260.515639 164.039063,235.132812 164.039063,235.132812 C164.039063,235.132812 253.906237,257.343749 292.046875,210.84375 C330.187513,164.343751 273.882815,162.343749 248.3125,162.34375 C222.742185,162.343751 186.242188,179.492188 186.242188,179.492188 Z" id="Path-1" fill="#0B73D7"></path>
                <path d="M166.570312,183.292969 C150.483803,161.515625 128.175781,175.796875 128.175781,196.484374 C128.175781,217.171873 150.606468,219.597658 156.953125,219.597656 C163.299782,219.597654 182.656822,205.070312 166.570312,183.292969 Z" id="Path-3" fill="#FE7C2A"></path>
            </g>
            <g id="Group-3" transform="translate(1495.000000, 0.000000)" stroke-width="5" stroke-linejoin="round">
                <path d="M284.051758,165.794928 C284.051758,165.794928 354.454102,128.46161 358.024414,82.0944802 C361.594727,35.7273507 324.845703,-4.93908948 272.182617,29.9291195 C219.519531,64.7973285 214.533203,80.4904836 214.533203,80.4904836 C214.533203,80.4904836 209.501953,22.9101563 178.022461,4.2838928 C146.542969,-14.3423706 103.054687,34.8238726 100.964844,58.4591756 C98.875,82.0944787 120.395508,125.461505 120.395508,125.461505 C120.395508,125.461505 71.5693359,118.971626 40.3925781,126.791601 C9.21582031,134.611576 -29.8486325,205.014027 39.6865234,227.452244 C109.221679,249.890461 170.486328,194.955548 170.486328,194.955548 C170.486328,194.955548 89.5498051,242.489222 83.1923828,276.80864 C76.8349605,311.128059 130.788086,351.291035 170.259766,336.958515 C209.731445,322.625995 223.949219,289.285923 225.962891,279.510212 C227.976562,269.734501 225.788086,251.384111 225.788086,251.384111 C225.788086,251.384111 276.513657,269.317741 309.855469,261.33421 C343.19728,253.35068 368.885727,243.387775 358.186523,203.809057 C347.48732,164.23034 284.051758,165.794928 284.051758,165.794928 Z" id="Path-5" fill="#0886D1"></path>
                <path d="M195.90625,141.01377 C205.613281,145.049379 276.765625,21.5140479 319.566406,49.5386684 C341.027917,63.590998 328.499365,101.546518 302.143561,125.486136 C275.937872,149.289401 235.964844,159.106229 235.964844,162.961332 C235.964844,170.693621 334.0625,192.75153 334.0625,213.351261 C334.0625,233.950993 296.200195,238.858552 263.605475,238.858551 C231.010754,238.858551 204.553711,206.30471 198.210938,209.827986 C191.868164,213.351261 217.305666,289.871164 177.446289,306.917076 C137.586912,323.962988 98.2216792,311.311317 125.479492,263.900802 C152.737305,216.490287 171.274414,195.086587 171.274414,195.086587 C171.274414,195.086587 86.8066406,235.57962 40.6972656,205.015996 C-5.41210937,174.452372 37.4550804,145.974534 86.6240234,150.894902 C135.792967,155.815271 153.187494,161.43714 158.575195,156.166021 C163.962896,150.894903 133.155275,103.406551 135.768555,69.932481 C136.970789,54.5327949 149.435486,24.8400721 161.826178,26.5753083 C176.368949,28.6119294 191.166083,64.5144388 192.828125,77.5189517 C195.906256,101.603533 186.199219,136.978162 195.90625,141.01377 Z" id="Path-4" fill="#FF8B2D"></path>
                <path d="M184.369141,162.215493 C166.516602,173.462189 164.098634,189.341559 175.082031,196.710288 C186.065429,204.079018 203.156252,200.531111 211.94043,191.86677 C220.724608,183.20243 224.684572,171.143882 217.491211,163.335729 C210.29785,155.527576 202.22168,150.968796 184.369141,162.215493 Z" id="Path-6" fill="#0886D1"></path>
            </g>
            <g id="Group" transform="translate(902.000000, 924.000000)" stroke-width="4" stroke-linejoin="round">
                <path d="M53.2705078,147.273437 C53.2705078,147.273437 19.3554693,142.380866 9.25390628,124.7666 C-0.847656793,107.152335 -6.92968799,88.0410145 17.810546,70.7333973 C42.5507801,53.4257801 72.8955078,76.3623047 72.8955078,76.3623047 C72.8955078,76.3623047 61.8359348,45.6660156 72.3730469,17.265625 C82.910159,-11.1347656 118.201169,2.86523532 123.6875,17.5068359 C129.173831,32.1484366 134.212891,40.6484375 134.212891,40.6484375 C134.212891,40.6484375 159.793943,17.6806652 185.733398,28.6533203 C211.672854,39.6259754 214.53613,78.4951183 206.285156,87.9990234 C198.034182,97.5029286 186.27832,108.463867 186.27832,108.463867 C186.27832,108.463867 216.855466,127.439447 207.972656,156.75293 C199.089846,186.066413 174.652341,187.111322 161.208008,187.111328 C147.763675,187.111335 130.293945,171.936523 130.293945,171.936523 C130.293945,171.936523 107.042968,221.986322 69.9560547,211.351562 C32.8691414,200.716803 38.7919933,164.457025 45.3115234,156.81543 C51.8310536,149.173835 53.2705078,147.273437 53.2705078,147.273437 Z" id="Path-12" fill="#0886D1"></path>
                <path d="M118.142578,142.008789 L128.395508,139.929688 C128.395508,139.929688 137.604492,171.344727 161.900391,171.344727 C186.196289,171.344727 201.969727,149.084961 191.258789,131.417969 C180.547852,113.750977 146.28125,112.956055 146.28125,112.956055 L145.387695,98.359375 C145.387695,98.359375 170.488281,103.074219 180.317383,90.0224609 C190.146484,76.9707031 194.359375,41.8007813 171.021484,39.7978516 C147.683594,37.7949219 130.353516,77.2626953 130.353516,77.2626953 L120.895508,74.3779297 C120.895508,74.3779297 123.0332,56.8076166 116.861325,41.2646479 C110.68945,25.7216791 93.6464576,-3.32730793 82.769528,35.52832 C75.3671881,61.9716801 91.3828125,86.1640625 91.3828125,86.1640625 L84.0791016,100.726563 C84.0791016,100.726563 75.6161211,97.1578417 64.1757818,91.3994167 C57.2075236,87.8919864 50.0388311,80.8241883 40.3847656,81.2197266 C14.8808594,82.2646511 5.22265656,115.172854 33.7753908,129.378909 C62.3281251,143.584964 89.3486296,131.417971 89.3486296,131.417971 L89.3486328,144.321289 C89.3486328,144.321289 67.97168,144.048825 60.1113281,159.136719 C52.2509763,174.224612 56.0859346,196.448242 82.769528,193.369143 C109.453121,190.290044 109.824215,180.036138 114.665036,168.811526 C119.505856,157.586913 118.142578,142.008789 118.142578,142.008789 Z" id="Path-10" fill="#FF8B2D"></path>
                <path d="M108.515625,93.9873046 C121.620117,85.921875 131.058594,95.4570308 131.058594,109.575195 C131.058594,123.69336 119.651367,134.076173 105.043946,127.938478 C90.4365242,121.800782 95.411133,102.052734 108.515625,93.9873046 Z" id="Path-11" fill="#0886D1"></path>
            </g>
            <g id="Group-5" transform="translate(0.000000, 924.000000)" stroke-width="4" stroke-linejoin="round">
                <path d="M167.140625,266.236328 C167.140625,266.236328 182.533203,309.232422 185.646484,315.783203 C188.759766,322.333984 202.84375,347.369141 202.84375,347.369141 C202.84375,347.369141 213.121094,324.025391 213.121094,315.414063 C213.121094,306.802734 209.484375,269.0625 209.484375,269.0625 C209.484375,269.0625 227.029297,291.404297 235.390625,299.103516 C243.751953,306.802734 262.824219,324.533203 267.263672,322.464844 C271.703125,320.396484 250.779297,263.792969 250.779297,263.792969 C250.779297,263.792969 295.994141,292.962891 303.484375,282.035156 C310.974609,271.107422 284.130859,237.318359 278.601562,234.357422 C273.072266,231.396484 261.775391,218.462891 261.775391,218.462891 C261.775391,218.462891 335.726562,236.923828 340.255859,223.384766 C344.785156,209.845703 284.556641,186.183594 275.910156,183.591797 C267.263672,181 257.410156,175.972656 257.410156,175.972656 C257.410156,175.972656 328.097656,163.017578 336.958984,158.511719 C345.820312,154.005859 359.837891,149.476563 330.341797,144.599609 C300.845703,139.722656 268.191406,137.632813 268.191406,137.632813 C268.191406,137.632813 304.576172,115.447266 308.908203,110.441406 C313.240234,105.435547 324.537109,90.4785156 324.537109,90.4785156 C324.537109,90.4785156 290.833984,91.2675781 277.90625,93.2890625 C264.978516,95.3105469 238.482422,100.861328 238.482422,100.861328 C238.482422,100.861328 256.837891,78.7890625 264.849609,62.4609375 C272.861328,46.1328125 278.412109,28.3242188 278.412109,28.3242188 C278.412109,28.3242188 240.095703,44.6054688 229.667969,53.5332031 C219.240234,62.4609375 201.867187,79.6132813 201.867187,79.6132813 C201.867187,79.6132813 203.041016,52.3046875 200.277344,37.3710938 C197.513672,22.4375 190.046875,4.36914063 190.046875,4.36914063 C190.046875,4.36914063 167.251953,47.1699219 173.697266,36.3710938 C180.142578,25.5722656 162.724609,66.2363281 162.724609,66.2363281 C162.724609,66.2363281 134.115234,-3.86914065 124.953125,0.25 C115.791016,4.36914065 120.537109,84.1875 120.537109,84.1875 C120.537109,84.1875 101.53125,62.3476577 93.9355469,55.078125 C86.3398438,47.8085923 70.7539062,39.078125 70.7539062,39.078125 C70.7539062,39.078125 78.9199219,73.4121108 84.6660156,88.6484375 C90.4121094,103.884764 99.4238281,122.998047 99.4238281,122.998047 C99.4238281,122.998047 21.5722656,99.6679702 17.7851562,106.453125 C13.9980469,113.23828 69.2089844,153.972656 69.2089844,153.972656 C69.2089844,153.972656 38.8359375,153.541009 26.7792969,157.107422 C14.7226562,160.673834 0.8125,169.730469 0.8125,169.730469 C0.8125,169.730469 26.5683594,191.826166 44.6582031,194.439453 C62.7480469,197.052741 85.4121094,199.339844 85.4121094,199.339844 C85.4121094,199.339844 56.1523438,223.027338 48.3378906,231.886719 C40.5234375,240.7461 23.4765625,261.101562 23.4765625,261.101562 C23.4765625,261.101562 47.4882812,261.777338 61.921875,257.248047 C76.3554688,252.718756 92.03125,244.533203 92.03125,244.533203 C92.03125,244.533203 78.2109375,267.546884 72.046875,284.546875 C65.8828125,301.546866 63.7929687,314.019531 63.7929687,314.019531 C63.7929687,314.019531 86.0253906,304.373056 102.003906,289.984375 C117.982422,275.595694 135.224609,255.742188 135.224609,255.742188 C135.224609,255.742188 130.349609,308.232431 132.787109,327.800781 C135.224609,347.369132 137.601562,357.296875 137.601562,357.296875 C137.601562,357.296875 154.34375,340.49415 157.478516,318.048828 C160.613281,295.603507 167.140625,266.236328 167.140625,266.236328 Z" id="Path-14" fill="#0886D1"></path>
                <path d="M192.308594,220.240234 C192.308594,220.240234 206.894531,315.986328 199.601562,318.076172 C192.308594,320.166016 172.082031,224.548828 172.082031,224.548828 L161.632812,217.189453 C161.632812,217.189453 151.251953,312.042969 146.722656,312.042969 C142.193359,312.042969 148.660156,219.537109 148.660156,219.537109 C148.660156,219.537109 94.6464844,287.326172 88.3984375,284.0625 C82.1503906,280.798828 129.349609,202.861328 129.349609,202.861328 C129.349609,202.861328 57.1367188,254.910156 54.0253906,248.707031 C50.9140625,242.503906 121.277344,189.927734 121.277344,189.927734 C121.277344,189.927734 27.8398431,183.134766 27.8398438,175.320313 C27.8398444,167.505859 121.496094,170.966797 121.496094,170.966797 C121.496094,170.966797 48.6074219,125.818359 52.7890625,120.441406 C56.9707031,115.064453 129.052734,151.791016 129.052734,151.791016 C129.052734,151.791016 84.7089844,73.9394531 89.7363281,70.6523438 C94.7636719,67.3652344 144.3125,133.201172 144.3125,133.201172 C144.3125,133.201172 119.972656,27.546875 128.855469,24.0644531 C137.738281,20.5820312 166.150391,119.857422 166.150391,119.857422 C166.150391,119.857422 176.566406,37.4980473 184.4375,37.4980469 C192.308594,37.4980465 184.853516,123.666016 184.853516,123.666016 C184.853516,123.666016 249.773438,48.3398422 255.695313,54.0664062 C261.617188,59.7929703 195.478516,133.396484 195.478516,133.396484 C195.478516,133.396484 294.927734,96.4902329 298.933594,103.873047 C302.939453,111.255861 210.085938,149.572266 210.085938,149.572266 C210.085938,149.572266 307.748047,148.33203 307.748047,153.011719 C307.748047,157.691408 217.226562,172.191406 217.226562,172.191406 C217.226562,172.191406 314.638672,211.183592 311.193359,216.779297 C307.748047,222.375002 217.316406,193.289062 217.316406,193.289062 C217.316406,193.289062 281.841797,256.746092 276.662109,261.449219 C271.482422,266.152345 204.822266,202.603516 204.822266,202.603516 L202.208984,206.238281 C202.208984,206.238281 253.763672,280.343764 245.925781,286.939453 C238.087891,293.535143 192.308594,220.240234 192.308594,220.240234 Z" id="Path-13" fill="#FF8B2D"></path>
                <path d="M166.873047,195.417969 C152.310547,195.417969 142.884766,176.279297 154.878906,164.982422 C166.873047,153.685547 177.912109,157.605469 185.705078,170.601563 C193.498047,183.597656 181.435547,195.417969 166.873047,195.417969 Z" id="Path-15" fill="#0886D1"></path>
            </g>
            <g id="Group-6" transform="translate(1290.000000, 406.000000)" stroke-width="4">
                <path d="M89.503418,203.274414 C89.503418,203.274414 84.4907227,214.160645 83.4077148,227.510742 C82.324707,240.86084 83.4946289,251.78418 83.4946289,251.78418 C83.4946289,251.78418 97.6459957,245.160645 104.291016,236.73584 C110.936036,228.311035 122.077148,212.505371 122.077148,212.505371 C122.077148,212.505371 127.748535,235.446777 131.39502,244.024414 C135.041504,252.602051 141.284668,263.743164 141.284668,263.743164 C141.284668,263.743164 151.195312,254.714844 153.366699,240.438477 C155.538086,226.162109 153.796875,208.811523 153.796875,208.811523 C153.796875,208.811523 181.813964,249.82666 190.125,244.296875 C198.436036,238.76709 180.191895,195.023926 180.191895,195.023926 C180.191895,195.023926 219.953125,221.587402 224.916504,217.592773 C229.879883,213.598145 201.583496,162.695312 201.583496,162.695312 C201.583496,162.695312 221.120117,165.383789 233.959473,164.039551 C246.798829,162.695312 260.912109,159.729004 260.912109,156.942383 C260.91211,154.155762 243.811523,139.708496 236.644043,137.650879 C229.476563,135.593262 208.195801,128.887695 208.195801,128.887695 C208.195801,128.887695 233.494629,118.827637 244.554199,111.74707 C255.61377,104.666504 271.071289,90.684082 271.071289,90.684082 C271.071289,90.684082 241.512207,88.34375 223.143066,90.5097656 C204.773926,92.6757813 177.473145,101.716797 177.473145,101.716797 C177.473145,101.716797 193.061035,84.5874023 201.246582,65.6635742 C209.432129,46.7397461 214.176757,29.1728516 212.223145,27.6660156 C210.269532,26.1591797 178.390625,48.4692399 172.344238,55.2885742 C166.297852,62.1079086 152.582031,77.487793 152.582031,77.487793 C152.582031,77.487793 153.486816,41.9482424 149.998047,29.5498047 C146.509278,17.151367 138.925781,0.905761719 138.925781,0.905761719 C138.925781,0.905761719 130.208496,11.1210937 126.991699,17.7773438 C123.774903,24.4335938 117.374511,49.3608398 116.59082,56.6699219 C115.807129,63.9790039 113.875977,90.1582031 113.875977,90.1582031 C113.875977,90.1582031 91.3876953,54.7670898 81.2480469,46.0375977 C71.1083984,37.3081055 57.8662109,25.9331055 54.7368164,27.3808594 C51.6074219,28.8286133 59.7993167,60.7861328 64.7080078,73.7124023 C69.6166989,86.6386719 78.4936523,106.662109 78.4936523,106.662109 C78.4936523,106.662109 51.3852539,99.1733398 40.5488281,98.090332 C29.7124023,97.0073242 6.31542969,95.7612305 6.31542969,95.7612305 C6.31542969,95.7612305 23.8745117,115.610352 37.3061523,120.307617 C50.737793,125.004883 75.9165039,133.048828 75.9165039,133.048828 C75.9165039,133.048828 42.6196289,148.199707 32.8720703,154.986816 C23.1245117,161.773926 -1.17187498,179.791016 0.55859375,184.209961 C2.28906248,188.628906 26.193846,190.164062 41.4599609,185.406738 C56.7260759,180.649414 68.7436523,176.600098 68.7436523,176.600098 C68.7436523,176.600098 58.134764,190.130859 54.1289062,199.471191 C50.1230485,208.811523 46.0361312,215.787598 48.9477539,218.585938 C51.8593767,221.384277 63.6796858,219.295898 71.6860352,214.053711 C79.6923845,208.811523 89.503418,203.274414 89.503418,203.274414 Z" id="Path-17" fill="#0886D1"></path>
                <path d="M122.173828,116.087891 C127.308594,113.695312 124.242189,78.9990234 128.179688,58.484375 C132.117186,37.9697266 134.841797,24.4140625 134.841797,24.4140625 C134.841797,24.4140625 142.11328,49.2529297 141.634766,65.1699219 C141.156251,81.0869141 139.023438,107.294922 139.023438,107.294922 C139.023438,107.294922 158.550781,83.2363281 168.478516,74.203125 C178.40625,65.1699219 193.884766,52.0625 193.884766,52.0625 C193.884766,52.0625 181.082031,78.1875 177.294922,83.5410156 C173.507813,88.8945312 155.416016,117.150391 155.416016,117.150391 C155.416016,117.150391 203.617188,103.519531 216.808594,101.300781 C230,99.0820312 245.675781,97.1875 245.675781,97.1875 C245.675781,97.1875 229.976563,109.619141 215.914063,113.384766 C201.851563,117.150391 169.609375,129.083984 169.609375,129.083984 C169.609375,129.083984 194.757813,136.59375 205.335938,139.707031 C215.914063,142.820312 236.921875,149.832031 236.921875,149.832031 C236.921875,149.832031 215.234375,151.791016 201.869141,149.527344 C188.503906,147.263672 167.798828,144.128906 167.798828,144.128906 C167.798828,144.128906 182.755859,159.933594 192.3125,171.708984 C201.869141,183.484375 211.880859,200.728516 211.880859,200.728516 C211.880859,200.728516 198.396484,196.357422 187.845703,188.232422 C177.294922,180.107422 159.175781,167.242188 159.175781,167.242188 L180.121094,223.279297 C180.121094,223.279297 165.205078,209.326172 160.310547,202.183594 C155.416016,195.041016 142.113281,176.927734 142.113281,176.927734 L140.71875,234.033203 C140.71875,234.033203 135.382324,228.75293 132.117188,208.082031 C128.852051,187.411133 126.686035,179.459961 126.686035,179.459961 C126.686035,179.459961 119.897949,192.582031 113.410156,203.848145 C106.922363,215.114258 99.3520508,231.289551 96.3154297,230.168457 C93.2788086,229.047363 99.0634763,204.233887 103.031738,195.362793 C107,186.491699 111.789551,171.736816 111.789551,171.736816 C111.789551,171.736816 95.215332,186.494141 84.8959961,193.611328 C74.5766602,200.728516 66.7602539,207.060547 64.9916992,205.193848 C63.2231445,203.327148 74.0551749,184.059082 80.3198242,178.790527 C86.5844736,173.521973 100.381348,156.018066 100.381348,156.018066 C100.381348,156.018066 78.6386718,163.077637 68.1831055,166.250488 C57.7275391,169.42334 30.4824219,176.611816 29.4541016,174.57666 C28.4257812,172.541504 52.1557602,156.431152 61.996582,151.989746 C71.8374039,147.54834 95.581543,136.542969 95.581543,136.542969 L45.4897461,111.822266 L99.4589844,119.877441 C99.4589844,119.877441 70.5205088,64.2553711 76.0449219,61.6313477 C81.5693349,59.0073242 117.039063,118.480469 122.173828,116.087891 Z" id="Path-16" fill="#FF8B2D"></path>
                <path d="M131.442871,126.657715 C138.017578,125.313477 145.060059,132.911133 145.060059,137.575684 C145.060059,142.240234 141.205566,150.469725 131.779785,150.469727 C122.354004,150.469728 121.581543,143.808105 121.581543,140.193848 C121.581543,136.57959 124.868164,128.001953 131.442871,126.657715 Z" id="Path-18" fill="#0886D1"></path>
            </g>
        </g>
        <g id="Group-7" transform="translate(324.000000, 794.000000)" stroke="#000000">
            <g id="Feet" transform="translate(415.505378, 283.957592) rotate(-77.000000) translate(-415.505378, -283.957592) translate(325.005378, 80.457592)" stroke-width="4" fill="#98E196">
                <path d="M65.9003906,0.708984375 C65.9003906,0.708984375 110.664062,23.4394531 123.050781,26.5292969 C135.4375,29.6191406 180.896484,43.4023438 180.896484,43.4023438 L148.765625,128.328125 L122.117187,116.484375 C122.117187,116.484375 135.572266,75.4462891 139.685547,69.9824219 C143.798828,64.5185547 146.910156,62.4980469 146.910156,62.4980469 L127.425781,55.3808594 L109.902344,89.9492188 C109.902344,89.9492188 91.6386719,81.9375 91.6386719,79.0214844 C91.6386719,76.1054688 99.8242188,38.7050781 99.8242188,38.7050781 C99.8242188,38.7050781 64.0371094,26.8398437 61.0527344,23.9238281 C58.0683594,21.0078125 65.9003906,0.708984375 65.9003906,0.708984375 Z" id="Path-19"></path>
                <path d="M26.0820312,100.914062 L143.925781,149.007812 L117.845703,208.050781 C117.845703,208.050781 101.041016,209.945312 97.90625,205.634766 C94.7714844,201.324219 103.480469,157.564453 103.480469,157.564453 L91.0078125,154.951172 L77.5742188,204.892578 L62.9667969,198.599609 L69.9101563,144.304688 L47.3359375,136.095703 L40.71875,196.183594 L26.7402344,197.228516 L26.0820312,100.914062 Z" id="Path-20"></path>
                <path d="M12.3066406,310.763672 C12.3066406,310.763672 4.64257812,279.087891 4.64257812,266.962891 C4.64257812,254.837891 0.5078125,222.095703 0.5078125,222.095703 C0.5078125,222.095703 38.3476563,229.628906 51.7128906,231.71875 C65.078125,233.808594 105.789062,233.679688 105.789062,233.679688 C105.789062,233.679688 110.431641,261.59375 113.369141,269.710938 C116.306641,277.828125 119.880859,300.099609 119.880859,300.099609 L92.7324219,304.953125 L85.546875,259.193359 L76.7773438,256.253906 L67.6972656,301.539062 L50.9160156,301.539062 C50.9160156,301.539062 48.4765625,285.818359 48.4765625,273.890625 C48.4765625,261.962891 47.4550781,251.1875 47.4550781,251.1875 L27.2519531,251.6875 L35.7402344,302.869141 L12.3066406,310.763672 Z" id="Path-21"></path>
                <path d="M8.3125,387.158203 C8.3125,387.158203 33.0429688,386.484375 50.0898437,386.484375 C67.1367188,386.484375 89.2558594,383.568359 89.2558594,383.568359 L106.914062,406.90625 L128.09375,401.876953 C128.09375,401.876953 125.958984,393.365234 123.914062,386.095703 C121.869141,378.826172 100.689453,339.470703 100.689453,339.470703 L83.9296875,316.507812 C83.9296875,316.507812 64.3164062,321.556641 64.3164062,325.693359 C64.3164062,329.830078 81.0351562,359.544922 81.0351562,359.544922 C81.0351562,359.544922 52.6914062,362.679688 42.9160156,362.679688 C33.140625,362.679688 1.98632812,366.662109 1.98632812,366.662109 L8.3125,387.158203 Z" id="Path-22"></path>
            </g>
            <g id="And" transform="translate(786.930111, 352.351307) rotate(-11.000000) translate(-786.930111, -352.351307) translate(663.430111, 287.851307)" stroke-width="4" fill="#98E196">
                <path d="M0.224609375,108.533203 C0.224609375,108.533203 4.578125,102.658203 10.3027344,88.4433594 C16.0273438,74.2285156 47.4003906,0.185546875 47.4003906,0.185546875 L66.3398438,3.49414062 C66.3398438,3.49414062 74.1972656,50.7167969 77.8339844,62.8632812 C81.4707031,75.0097656 89.9824219,116.263672 89.9824219,116.263672 L70.3457031,121.269531 L62.3574219,91.9042969 C62.3574219,91.9042969 55.0195313,89.8144531 47.2265625,89.8144531 C39.4335938,89.8144531 34.5117188,88.2910156 34.5117188,88.2910156 L22.4941406,110.167969 L0.224609375,108.533203 Z M39.5917969,62.4921875 C39.5917969,62.4921875 42.8984375,64.0585938 48.625,64.0585938 C54.3515625,64.0585938 58.3125,63.7109375 58.3125,63.7109375 L53.828125,42.0292969 L49.3007813,42.0292969 L39.5917969,62.4921875 Z" id="Combined-Shape"></path>
                <path d="M108.748047,121.78125 C108.748047,121.78125 99.8652344,84.9707031 99.8652344,71.5371094 C99.8652344,58.1035156 96.578125,48.9433594 96.578125,38.7109375 C96.578125,28.4785156 89.2851562,17.0058594 89.2851562,17.0058594 L98.84375,17.0058594 L134.828125,60.0039062 C134.828125,60.0039062 140.226562,44.4160156 140.226562,36.0800781 C140.226562,27.7441406 139.705078,14.5957031 139.705078,14.5957031 L159.710937,18.9511719 C159.710937,18.9511719 164.240234,37.6640625 164.240234,48.8339844 C164.240234,60.0039062 164.390625,87.28125 166.677734,101.5625 C168.964844,115.84375 170.072266,128.142578 167.15625,128.142578 C164.240234,128.142578 123.507812,85.6445312 123.507812,85.6445312 C123.507812,85.6445312 125.074219,101.972656 125.074219,107.326172 C125.074219,112.679688 125.574219,121.041016 125.574219,121.041016 L108.748047,121.78125 Z" id="Path-25"></path>
                <path d="M192.357422,122.669922 C192.357422,122.669922 187.259766,98.7246094 183.496094,74.4082031 C179.732422,50.0917969 171.373047,20.5292969 171.373047,20.5292969 C171.373047,20.5292969 197.847656,12.867188 218.353516,28.5410156 C238.859375,44.2148433 255.335938,67.7050744 240.078125,94.1113281 C224.820313,120.517582 203.09375,122.28125 203.09375,122.28125 L192.357422,122.669922 Z M208.886719,89.5605469 C208.886719,89.5605469 208.121094,84.3125 203.160156,64.3515625 C198.199219,44.390625 197.480469,36.3339844 197.480469,36.3339844 C197.480469,36.3339844 212.4375,43.9746094 215.572266,59.9980469 C218.707031,76.0214844 208.886719,89.5605469 208.886719,89.5605469 Z" id="Combined-Shape"></path>
            </g>
            <g id="Rising" transform="translate(932.492835, 33.138925)" stroke-width="4" fill="#98E196">
                <path d="M45.4414063,325.304688 C45.4414063,325.304688 35.6875,288.033203 24.2148438,268.548828 C12.7421875,249.064453 0.900390625,228.753906 0.900390625,228.753906 C0.900390625,228.753906 9.51757813,209.119141 29.1992188,209.119141 C48.8808594,209.119141 68.734375,227.927734 68.734375,242.513672 C68.734375,257.099609 64.0097656,263.132813 64.0097656,263.132813 L114.996094,296.005859 C114.996094,296.005859 107.966797,297.443359 101.871094,303.146484 C95.7753906,308.849609 93.2753906,310.894531 93.2753906,310.894531 L56.2226563,290.667969 C56.2226563,290.667969 65.6289063,314.460938 65.6289063,317.921875 C65.6289063,321.382813 45.4414063,325.304688 45.4414063,325.304688 Z M35.5039063,250.716797 C35.5039063,250.716797 36.5917969,252.611328 31.5644531,242.576172 C26.5371094,232.541016 26.3095703,230.955078 26.3095703,230.955078 C26.3095703,230.955078 35.5019531,224.859375 41.3691406,231.390625 C47.2363281,237.921875 41.9560547,247.223632 40.3999023,248.970215 C38.84375,250.716798 35.5039063,250.716797 35.5039063,250.716797 Z" id="Combined-Shape"></path>
                <path d="M129.1875,289.725098 L147.066406,284.194824 C147.066406,284.194824 119.434082,243.353027 117.317383,239.581543 C115.200684,235.810059 87.5620117,193.981445 87.5620117,193.981445 L70.4990234,201.50293 C70.4990234,201.50293 84.8183594,229.098145 90.043457,235.987793 C95.2685547,242.877441 124.01123,285.205566 124.01123,285.205566 C124.01123,285.205566 125.192383,287.69873 127.189941,288.346191 C129.1875,288.993652 129.1875,289.725098 129.1875,289.725098 Z" id="Path-30"></path>
                <path d="M165.861328,253.902344 L163.259766,224.588867 C163.259766,224.588867 185.955078,233.535156 189.438477,220.321289 C192.921875,207.107422 182.036133,190.93164 159.330078,199.083984 C136.624023,207.236328 127.581054,213.236331 114.15625,199.845703 C99.5544106,185.281037 113.075196,163.509766 124.075195,155.53125 C135.075195,147.552734 148.632813,148.685547 148.632813,148.685547 L148.382813,162.78125 C148.382813,162.78125 129.387696,162.077148 127.581055,179.361328 C125.774413,196.645508 142.676757,190.378906 148.084961,182.549805 C153.493165,174.720703 167.807618,168.374023 190.688477,179.65332 C213.569335,190.932617 224.128905,218.220703 212.633789,236.061523 C201.138673,253.902344 165.861328,253.902344 165.861328,253.902344 Z" id="Path-31"></path>
                <path d="M240.283203,205.65332 C240.283203,205.65332 242.504883,205.381836 248.033203,201.060547 C253.561523,196.739258 254.607422,194.138672 254.607422,194.138672 C254.607422,194.138672 216.899414,157.8125 208.300781,147.995117 C199.702148,138.177734 180.641602,118.768555 180.641602,118.768555 L167.984375,129.260742 C167.984375,129.260742 181.666992,148.146484 192.181641,156.919922 C202.696289,165.693359 213.841797,173.580078 222.310547,183.859375 C230.779297,194.138672 240.283203,205.65332 240.283203,205.65332 Z" id="Path-32"></path>
                <path d="M275.191406,176.626953 L288.069336,166.709961 C288.069336,166.709961 273.245117,150.036133 263.938477,144.810547 C254.631836,139.584961 247.588867,131.040039 247.588867,131.040039 C247.588867,131.040039 261.205078,135.166992 277.445313,136.319336 C293.685547,137.47168 315.522461,141.795898 315.522461,141.795898 L321.084961,131.216797 C321.084961,131.216797 291.704102,107.310547 270.432617,91.9638672 C249.161133,76.6171875 221.089844,64.1083984 221.089844,64.1083984 C221.089844,64.1083984 218.435547,68.7998047 215.474609,73.0556641 C212.513672,77.3115234 209.390625,81.7304688 209.390625,81.7304688 L245.049805,105.720703 C245.049805,105.720703 233.107422,104.849609 223.399414,104.849609 C213.691406,104.849609 203.100586,101.366211 203.100586,101.366211 L194.6875,109.692383 C194.6875,109.692383 219.520508,126.945313 232.285156,137.47168 C245.049805,147.998047 275.191406,176.626953 275.191406,176.626953 Z" id="Path-33"></path>
                <path d="M393.411133,63.4541016 L404.762695,45.0253906 L321.229492,17.2792969 C321.229492,17.2792969 299.25293,58.8691406 301.767578,63.2119141 C304.282227,67.5546875 320.578125,70.265625 320.578125,70.265625 L331.985352,50.28125 C331.985352,50.28125 347.462891,82.4248047 318.214844,83.8173828 C288.966796,85.2099609 282.621094,48.2871094 285.233398,33.5166016 C287.845703,18.7460938 293.77832,10.1132813 293.77832,10.1132813 L275.6875,0.772460938 C275.6875,0.772460938 254.125,20.6513672 261.515625,50.2675781 C268.90625,79.8837891 292.344924,99.3047627 316.40918,101.371094 C338.666015,103.282227 351.064452,100.399414 358.478515,81.8056641 C365.892577,63.2119141 354.635742,51.5507813 354.635742,51.5507813 L393.411133,63.4541016 Z" id="Path-34"></path>
            </g>
            <g id="10" transform="translate(128.567788, 121.489037) rotate(-9.000000) translate(-128.567788, -121.489037) translate(15.067788, 16.489037)" stroke-width="5" fill="#FF8CE0">
                <path d="M65.8809228,134.773658 C72.1738916,166.578345 117.808657,183.297095 148.263735,178.769751 C178.718813,174.242408 210.767642,143.71897 207.109438,117.705298 C203.451235,91.6916263 173.451235,64.00022 130.695376,69.8537357 C87.9395166,75.7072514 59.5879541,102.96897 65.8809228,134.773658 Z M127.755923,149.381079 L140.492251,130.070533 L169.768241,124.735636 C169.768241,124.735636 167.250063,139.998267 155.646548,146.465064 C144.043032,152.931861 127.755923,149.381079 127.755923,149.381079 Z M138.582095,114.705298 L170.196787,108.708166 C170.196787,108.708166 159.748867,95.5332377 146.534024,95.5332377 C133.31918,95.5332377 123.237432,100.189074 123.237432,100.189074 L138.582095,114.705298 Z M116.750536,131.45751 L108.293401,149.062101 C108.293401,149.062101 103.400646,149.062101 100.449928,143.959357 C97.4992093,138.856613 98.4637965,133.562299 98.4637965,133.562299 L116.750536,131.45751 Z M119.307191,118.046185 L105.558726,103.364917 C105.558726,103.364917 101.426175,105.401449 97.9159289,111.723817 C94.4056827,118.046185 97.8302223,120.247362 97.8302223,120.247362 L119.307191,118.046185 Z" id="Combined-Shape" stroke-linejoin="round" transform="translate(136.201783, 124.281716) rotate(-34.000000) translate(-136.201783, -124.281716) "></path>
                <path d="M86.8215181,111.756104 L108.067909,103.581915 C108.067909,103.581915 74.7372005,50.7123781 72.5374942,46.7929936 C70.3377879,42.8736092 41.6152558,-0.595327907 41.6152558,-0.595327907 L21.2167792,9.64815751 C21.2167792,9.64815751 36.097653,38.3255284 41.5276547,45.4853569 C46.9576564,52.6451853 81.4422593,107.059337 81.4422593,107.059337 C81.4422593,107.059337 82.669731,109.650272 84.7456245,110.323123 C86.8215181,110.995974 86.8215181,111.756104 86.8215181,111.756104 Z" id="Path-30-Copy" transform="translate(64.642344, 55.580388) rotate(-103.000000) translate(-64.642344, -55.580388) "></path>
            </g>
        </g>
        <g id="Group-2" transform="translate(1382.000000, 1016.000000)" stroke="#000000" stroke-width="4" stroke-linejoin="round">
            <path d="M124.841797,168.902344 C124.841797,168.902344 131.938477,195.106445 138.022461,209.267578 C144.106445,223.428711 156.885742,246.994141 156.885742,246.994141 C156.885742,246.994141 169.251953,233.518555 169.251953,211.671875 C169.251953,189.825195 167.183594,171.113281 167.183594,171.113281 C167.183594,171.113281 180.235352,185.90625 190.314453,191.120117 C200.393555,196.333984 227.311523,207.556641 227.311523,207.556641 C227.311523,207.556641 219.287109,178.907227 210.514648,167.237305 C201.742188,155.567383 184.946289,133.819336 184.946289,133.819336 C184.946289,133.819336 198.21582,134.15625 218.484375,132.338867 C238.75293,130.521484 259.217773,118.427734 259.217773,118.427734 C259.217773,118.427734 238.061523,105.540039 220.296875,105.540039 C202.532227,105.540039 181.828125,104.22168 181.828125,104.22168 C181.828125,104.22168 208.481445,84.5292969 217.896484,71.6416016 C227.311523,58.7539062 239.853516,37.3085938 239.853516,37.3085938 C239.853516,37.3085938 214.587891,39.6171875 198.208008,49.1513672 C181.828125,58.6855469 165.551758,70.7900391 165.551758,70.7900391 C165.551758,70.7900391 166.761719,49.6972656 165.084961,32.6289062 C163.408203,15.5605469 156.650391,0.05859375 153.537109,0.05859375 C150.423828,0.05859375 143.858398,10.1181641 139.319336,24.8125 C134.780273,39.5068359 129.119141,55.0839844 129.119141,55.0839844 C129.119141,55.0839844 121.618164,34.9677734 112.573242,24.0175781 C103.52832,13.0673828 88.1689453,-2.10644531 85.3505859,0.516601562 C82.5322266,3.13964844 79.2802734,12.5869141 81.3701172,25.8769531 C83.4599609,39.1669922 87.6630859,52.8056641 87.6630859,52.8056641 C87.6630859,52.8056641 74.4365234,43.4785156 57.640625,37.2958984 C40.8447266,31.1132813 26.2373047,29.6210938 26.2373047,29.6210938 C26.2373047,29.6210938 31.5488281,52.6757813 43.5556641,64.3339844 C55.5625,75.9921875 62.703125,83.8974609 62.703125,83.8974609 C62.703125,83.8974609 43.2792969,79.9667969 29.4433594,79.9667969 C15.6074219,79.9667969 0.356445312,82.5791016 0.356445312,82.5791016 C0.356445312,82.5791016 12.6894531,99.8857422 28.7128906,107.277344 C44.7363281,114.668945 79.6337891,126.076172 79.6337891,126.076172 C79.6337891,126.076172 62.6005859,133.066406 49.9726562,143.569336 C37.3447266,154.072266 26.7421875,161.462891 28.7128906,165.696289 C30.6835938,169.929688 49.84375,166.543945 62.5458984,163.670898 C75.2480469,160.797852 88.9316406,157.631836 88.9316406,157.631836 C88.9316406,157.631836 80.1699219,173.912109 77.5576172,185.917969 C74.9453125,197.923828 70.3408203,209.429688 72.59375,211.421875 C74.8466797,213.414062 96.7919922,199.859375 103.660156,191.555664 C110.52832,183.251953 124.841797,168.902344 124.841797,168.902344 Z" id="Path-8" fill="#0886D1"></path>
            <path d="M150.885742,111.859375 C150.885742,111.859375 183.28125,91.3837891 191.81543,81.5771484 C200.349609,71.7705078 212.192383,58.7412109 212.192383,58.7412109 C212.192383,58.7412109 162.229492,82.4169922 171.036133,77.1386719 C179.842773,71.8603516 147.318359,93.1201172 147.318359,93.1201172 C147.318359,93.1201172 151.824219,64.7734375 151.824219,56.9804688 C151.824219,49.1875 149.635742,21.8759766 149.635742,21.8759766 C149.635742,21.8759766 136.670898,48.8764648 135.103516,57.8720703 C133.536133,66.8676758 129.96582,92.6943359 129.96582,92.6943359 C129.96582,92.6943359 122.814453,69.0302734 116.043945,56.7851562 C109.273437,44.5400391 90.9863281,18.328125 90.9863281,18.328125 C90.9863281,18.328125 94.9921875,49.1669922 100.129883,64.1113281 C105.267578,79.0556641 107.956055,87.5146484 107.956055,87.5146484 C107.956055,87.5146484 95.4277344,73.1679688 80.4492187,62.7177734 C65.4707031,52.2675781 42.9160156,44.2558594 42.9160156,44.2558594 C42.9160156,44.2558594 56.6230469,66.0908203 69.9882812,76.8027344 C83.3535156,87.5146484 102.379883,104.038086 102.379883,104.038086 C102.379883,104.038086 81.8730469,96.5058594 61.3857422,95.3515625 C40.8984375,94.1972656 24.0498047,92.0205078 24.0498047,92.0205078 C24.0498047,92.0205078 58.0654297,112.24707 73.1308594,115.71875 C88.1962891,119.19043 106.113281,120.833984 106.113281,120.833984 C106.113281,120.833984 82.2529297,133.460938 74.6005859,137.444336 C66.9482422,141.427734 47.8457031,155.90625 47.8457031,155.90625 C47.8457031,155.90625 81.7431641,152.051758 97.6689453,144.748047 C113.594727,137.444336 116.543945,136.224609 116.543945,136.224609 C116.543945,136.224609 103.611328,151.692383 97.2988281,165.962891 C90.9863281,180.233398 86,190.27832 86,190.27832 C86,190.27832 112.364258,169.019531 119.046875,156.883789 C125.729492,144.748047 129.898438,138.402344 129.898438,138.402344 C129.898438,138.402344 130.78125,158.237305 136.255859,174.257812 C141.730469,190.27832 152.436523,212.644531 152.436523,212.644531 C152.436523,212.644531 155.942383,191.925781 154.189453,173.248047 C152.436523,154.570312 145.761719,134.768555 145.761719,134.768555 C145.761719,134.768555 164.768555,155.918945 179.44043,167.141602 C194.112305,178.364258 209.863281,185.951172 209.863281,185.951172 C209.863281,185.951172 194.339844,161.417969 183.825195,149.910156 C173.310547,138.402344 157.048828,126.234375 157.048828,126.234375 C157.048828,126.234375 175.249023,127.628906 191.685547,124.231445 C208.12207,120.833984 219.506836,116.556641 219.506836,116.556641 C219.506836,116.556641 189.799805,111.842773 180.417969,111.842773 C171.036133,111.842773 150.885742,111.859375 150.885742,111.859375 Z" id="Path-7" fill="#FF8B2D"></path>
            <path d="M129.518555,104.890625 C138.977539,102.092773 144.789063,112.456055 142.199219,120.282227 C139.609375,128.108398 129.932617,126.854492 124.979492,123.045898 C120.026367,119.237305 120.05957,107.688477 129.518555,104.890625 Z" id="Path-9" fill="#0886D1"></path>
        </g>
    </g>
</svg>